<svg width="103" height="103" viewBox="0 0 103 103" fill="none" xmlns="http://www.w3.org/2000/svg">
<path fill-rule="evenodd" clip-rule="evenodd" d="M0 12.339V91.661C0 98.7119 12.3667 107.525 22.9667 96.9492C29.6834 90.2475 40.6333 77.5593 40.6333 77.5593V91.661C40.6333 95.1864 44.1667 102.237 53 102.237H93.6333C100.7 102.237 106 89.8983 100.7 82.8475C95.959 78.1171 74.2545 53.6402 69.7285 48.5293L40.6333 77.5593L40.6333 54.6441H14.1333L44.1667 24.678V47.5932L68.9 47.5932L98.9333 17.6271C106 10.5763 98.9333 0 91.8667 0H70.1326C69.3381 0 68.5841 0.315148 68.0217 0.876304L44.1667 24.678V12.339C44.1667 5.28814 40.6333 0 35.3333 0H10.6C7.06667 0 0 5.28814 0 12.339Z" fill="#3F8FEE"/>
</svg>
