<svg width="176" height="290" viewBox="0 0 176 290" fill="none" xmlns="http://www.w3.org/2000/svg">
<path d="M0.400001 0.79998H42.4C51.4667 0.79998 57.3333 2.26665 60 5.2C62.9333 8.13332 64.4 14.2667 64.4 23.6V290H22.4C13.3333 290 7.33334 288.533 4.4 285.6C1.73333 282.667 0.400001 276.533 0.400001 267.2V0.79998ZM107.6 170.4H153.2C161.2 170.4 166.933 172.667 170.4 177.2C173.867 181.467 175.6 188.533 175.6 198.4V290H122C117.733 290 114.267 288.533 111.6 285.6C108.933 282.667 107.6 278.8 107.6 274V170.4ZM108.8 0.79998H154.8C162.533 0.79998 167.467 2.26665 169.6 5.2C171.733 8.13332 172.8 14.2667 172.8 23.6V108.4C172.8 124.4 169.867 136.4 164 144.4C158.4 152.133 146.933 156 129.6 156H80.4V118H98C102.8 118 105.733 117.2 106.8 115.6C108.133 113.733 108.8 110.667 108.8 106.4V0.79998Z" fill="url(#paint0_linear_4_3)"/>
<defs>
<linearGradient id="paint0_linear_4_3" x1="240" y1="102.5" x2="-28" y2="102.5" gradientUnits="userSpaceOnUse">
<stop offset="0.2" stop-color="#12289B"/>
<stop offset="0.795" stop-color="#4F7EC3"/>
<stop offset="0.95" stop-color="#7C95B1"/>
</linearGradient>
</defs>
</svg>