<svg width="212" height="208" viewBox="0 0 212 208" fill="none" xmlns="http://www.w3.org/2000/svg">
<rect width="212" height="208" rx="104" fill="white"/>
<g filter="url(#filter0_d_0_4)">
<path fill-rule="evenodd" clip-rule="evenodd" d="M61 72.2586V138.207C61 144.069 71.8213 151.397 81.0966 142.603C86.974 137.032 96.5556 126.483 96.5556 126.483V138.207C96.5556 141.138 99.6474 147 107.377 147H142.932C149.116 147 153.754 136.741 149.116 130.879C144.967 126.946 125.975 106.596 122.015 102.347L96.5556 126.483L96.5556 107.431H73.3672L99.6474 82.5172V101.569L121.29 101.569L147.57 76.6552C153.754 70.7931 147.57 62 141.387 62H122.479C121.711 62 120.979 62.2945 120.422 62.8228L99.6474 82.5172V72.2586C99.6474 66.3966 96.5556 62 91.9179 62H70.2754C67.1836 62 61 66.3966 61 72.2586Z" fill="#35388B"/>
<path fill-rule="evenodd" clip-rule="evenodd" d="M61 72.2586V138.207C61 144.069 71.8213 151.397 81.0966 142.603C86.974 137.032 96.5556 126.483 96.5556 126.483V138.207C96.5556 141.138 99.6474 147 107.377 147H142.932C149.116 147 153.754 136.741 149.116 130.879C144.967 126.946 125.975 106.596 122.015 102.347L96.5556 126.483L96.5556 107.431H73.3672L99.6474 82.5172V101.569L121.29 101.569L147.57 76.6552C153.754 70.7931 147.57 62 141.387 62H122.479C121.711 62 120.979 62.2945 120.422 62.8228L99.6474 82.5172V72.2586C99.6474 66.3966 96.5556 62 91.9179 62H70.2754C67.1836 62 61 66.3966 61 72.2586Z" fill="url(#paint0_linear_0_4)"/>
</g>
<defs>
<filter id="filter0_d_0_4" x="57" y="62" width="98" height="93" filterUnits="userSpaceOnUse" color-interpolation-filters="sRGB">
<feFlood flood-opacity="0" result="BackgroundImageFix"/>
<feColorMatrix in="SourceAlpha" type="matrix" values="0 0 0 0 0 0 0 0 0 0 0 0 0 0 0 0 0 0 127 0" result="hardAlpha"/>
<feOffset dy="4"/>
<feGaussianBlur stdDeviation="2"/>
<feComposite in2="hardAlpha" operator="out"/>
<feColorMatrix type="matrix" values="0 0 0 0 0 0 0 0 0 0 0 0 0 0 0 0 0 0 0.25 0"/>
<feBlend mode="normal" in2="BackgroundImageFix" result="effect1_dropShadow_0_4"/>
<feBlend mode="normal" in="SourceGraphic" in2="effect1_dropShadow_0_4" result="shape"/>
</filter>
<linearGradient id="paint0_linear_0_4" x1="106" y1="62" x2="106" y2="147" gradientUnits="userSpaceOnUse">
<stop stop-opacity="0"/>
<stop offset="0.19" stop-color="#18153A"/>
<stop offset="0.865" stop-color="#18153A"/>
</linearGradient>
</defs>
</svg>
