<svg width="589" height="492" viewBox="0 0 589 492" fill="none" xmlns="http://www.w3.org/2000/svg">
<g filter="url(#filter0_d_77_803)">
<mask id="mask0_77_803" style="mask-type:luminance" maskUnits="userSpaceOnUse" x="6" y="9" width="579" height="467">
<path d="M6 9H584.5V476H6V9Z" fill="white"/>
</mask>
<g mask="url(#mask0_77_803)">
<mask id="mask1_77_803" style="mask-type:luminance" maskUnits="userSpaceOnUse" x="95" y="23" width="403" height="269">
<path d="M95.4795 23.7045H497.805V291.927H95.4795V23.7045Z" fill="white"/>
</mask>
<g mask="url(#mask1_77_803)">
<g opacity="0.5">
<path d="M497.805 208.111C497.805 254.378 460.257 291.927 413.989 291.927H196.069C140.572 291.927 95.4795 246.834 95.4795 191.337C95.4795 139.535 134.714 96.7925 185.171 91.4285C206.116 51.2057 248.195 23.7041 296.642 23.7041C357.657 23.7041 408.454 67.1281 419.863 124.958C463.441 127.972 497.805 163.853 497.805 208.111Z" fill="#97B1DC"/>
</g>
</g>
<path d="M31.8105 311.216V348.81H283.241L180.213 425.059H48.7512V461.311H180.89V461.117L180.896 461.425L306.382 368.144C323.271 355.589 343.755 348.81 364.8 348.81H535.972V311.216H31.8105Z" fill="#8193CA"/>
<path d="M535.972 311.216L582.729 278.012V316.983L535.972 349.171V311.216Z" fill="#8193CA"/>
</g>
<path d="M83.9889 278.012L31.811 311.217H202.941C210.695 311.217 213.619 321.359 207.056 325.488L48.7517 425.059H180.214L308.079 330.428C324.938 317.951 345.357 311.217 366.331 311.217H535.972L582.729 278.012H83.9889Z" fill="url(#paint0_linear_77_803)"/>
<mask id="mask2_77_803" style="mask-type:luminance" maskUnits="userSpaceOnUse" x="25" y="0" width="564" height="492">
<path d="M25 0H588.5V491.5L25 491.5V0Z" fill="white"/>
</mask>
<g mask="url(#mask2_77_803)">
<path d="M178.988 298.265C178.032 297.682 178.577 293.33 178.577 293.33C178.577 293.33 183.03 289.767 183.642 292.495C184.255 295.222 187.872 296.447 189.932 296.781C191.354 297.012 191.794 297.8 191.931 298.265H178.988Z" fill="#233862"/>
<path d="M159.275 298.265C158.319 297.682 158.863 293.33 158.863 293.33C158.863 293.33 163.316 289.767 163.929 292.495C164.541 295.222 168.159 296.447 170.219 296.781C171.641 297.012 172.081 297.8 172.217 298.265H159.275Z" fill="#233862"/>
<path d="M169.764 266.614C169.946 267.613 170.061 268.432 170.091 269.019C170.505 277.094 176.889 295.557 178.03 295.988C179.797 296.655 182.579 295.238 184.035 294.774C184.637 294.581 185.044 293.973 184.91 293.356C181.749 278.824 180.588 257.897 180.165 245.508C179.951 239.268 178.88 234.957 178.88 234.957C178.88 234.957 163.311 230.803 163.219 236.057C163.137 240.707 168.376 258.943 169.764 266.614Z" fill="#2C3282"/>
<path d="M169.764 266.614L180.165 245.508C179.951 239.268 178.88 234.957 178.88 234.957C178.88 234.957 163.311 230.803 163.219 236.057C163.137 240.707 168.376 258.943 169.764 266.614Z" fill="#12294B"/>
<path d="M173.228 236.076L164.998 295.727C164.998 295.727 161.383 296.599 158.572 295.901C158.572 295.901 156.163 264.176 156.363 256.506C156.564 248.837 154.634 235.983 156.804 234.566C158.974 233.148 173.228 236.076 173.228 236.076Z" fill="#2C3282"/>
<path d="M184.917 205.734L191.605 222.251L201.839 235.706L200.212 237.671L185.809 225.26L179.174 212.075L184.917 205.734Z" fill="#F9A66D"/>
<path d="M185.169 202.557L189.51 212.675L181.453 218.183L182.885 209.188L185.169 202.557Z" fill="#F26C65"/>
<path d="M173.828 199.015C173.828 199.015 164.985 197.024 161.549 207.077C158.112 217.131 156.085 235.62 156.085 235.62L165.767 236.987L179.175 236.601L183.694 209.219C184.395 206.648 186.578 203.129 184.428 201.649C183.457 200.981 182.17 200.425 180.463 200.136L173.828 199.015Z" fill="#F69186"/>
<path d="M181.052 221.921L169.31 203.601L164.087 215.246L175.78 227.7C176.835 228.823 178.345 229.323 179.801 229.032L198.504 224.307L199.823 221.671L181.052 221.921Z" fill="#FAB17E"/>
<path d="M169.97 202.021L179.54 214.495L169.182 225.032L161.172 212.432L169.97 202.021Z" fill="#F69186"/>
<path d="M164.893 218.714L169.432 224.773L171.261 222.886L169.095 227.542L164.893 218.714Z" fill="#F26C65"/>
<path d="M171.242 207.801L177.474 216.597L173.112 206.81L171.242 207.801Z" fill="#F26C65"/>
<path d="M186.498 183.109C186.498 183.109 189.683 188.014 185.467 188.487L186.498 183.109Z" fill="#2C3282"/>
<path d="M180.716 195.541L179.79 201.174C179.469 203.152 178.174 203.983 176.384 203.606C174.856 203.283 173.304 202.167 173.658 200.436L175.508 191.652L180.716 195.541Z" fill="#FAB17E"/>
<path d="M180.112 199.289C180.112 199.289 175.686 198.803 175.182 193.366C175.023 191.653 180.822 194.965 180.822 194.965L180.112 199.289Z" fill="#ED975E"/>
<path d="M175.465 193.138C177.485 195.894 181.443 196.578 184.12 194.454C184.768 193.94 185.252 193.345 185.386 192.671L186.477 187.027C187.148 183.65 185.231 180.288 182.145 179.43C178.985 178.551 175.229 180.467 174.437 183.897L173.638 188.307C173.372 189.765 174.313 191.565 175.465 193.138Z" fill="#FAB17E"/>
<path d="M172.443 180.358C173.285 177.794 175.473 178.476 175.473 178.476L175.474 178.479C176.639 177.003 179.29 174.115 181.956 174.799C184.525 175.458 187.652 177.612 189.84 180.384C191.001 181.855 191.716 183.52 189.979 184.224C189.956 184.234 189.932 184.243 189.909 184.252C188.116 184.947 186.027 184.08 186.027 184.08C186.027 184.08 181.867 183.486 178.618 182.501C178.526 184.015 177.981 186.337 175.468 185.921L174.119 190.282C174.119 190.282 171.353 183.682 172.443 180.358Z" fill="#2C3282"/>
<path d="M170.845 187.632C170.552 188.902 171.263 190.196 172.433 190.521C173.603 190.846 174.789 190.081 175.082 188.81C175.375 187.54 174.664 186.246 173.494 185.921C172.324 185.595 171.138 186.361 170.845 187.632Z" fill="#FAB17E"/>
<path d="M172.055 198.823L177.474 199.322L181.305 200.307C181.305 200.307 180.851 204.207 177.514 204.077C171.363 203.837 172.055 198.823 172.055 198.823Z" fill="#FAB17E"/>
<path d="M199.824 221.671L208.985 219.388L213.625 221.561C213.893 221.687 213.809 222.086 213.513 222.093C212.561 222.117 210.951 221.863 208.973 220.404C208.973 220.404 209.137 224.415 206.572 224.637C204.008 224.858 198.505 224.307 198.505 224.307L199.824 221.671Z" fill="#FAB17E"/>
<path d="M201.839 235.706L206.244 237.095L209.501 240.483C209.674 240.663 209.531 240.962 209.281 240.939C208.268 240.846 206.352 240.555 204.861 239.656C202.733 238.375 201.791 237.965 202.463 239.134C203.135 240.304 202.727 241.583 202.727 241.583C202.727 241.583 200.927 240.457 200.212 237.67L201.839 235.706Z" fill="#F9A66D"/>
<path d="M330.795 302.745C330.795 311.059 308.27 317.799 280.485 317.799C252.701 317.799 230.177 311.059 230.177 302.745C230.177 294.432 252.701 287.692 280.485 287.692C308.27 287.692 330.795 294.432 330.795 302.745Z" stroke="#97B1DC" stroke-width="1.94444" stroke-miterlimit="10" stroke-dasharray="7.88 7.88"/>
</g>
<path d="M279.496 50.4235C277.301 53.4964 275.373 56.9776 274.467 60.5586C271.668 71.6478 274.935 77.9128 276.798 83.212C278.171 87.1197 273.979 97.0344 272.048 104.301C271.621 105.906 269.534 106.149 268.75 104.695C265.654 98.9471 259.124 91.0533 246.474 90.4441C232.866 89.7888 228.917 76.7215 227.785 68.3785C227.495 66.2448 224.477 65.9791 223.86 68.0408C223.364 69.7001 223.06 71.6082 223.196 73.6868C223.317 75.5457 221.252 76.6411 219.87 75.4446C217.489 73.3835 214.489 69.656 211.948 62.9736C209.763 57.2232 206.644 55.0597 203.786 54.4712C201.652 54.0324 200.53 56.9516 202.298 58.2603C204.82 60.1276 207.311 63.3262 207.747 68.7564C208.682 80.3213 218.013 96.7097 237.61 99.6011C251.731 101.685 254.705 116.041 255.265 123.894C255.382 125.521 253.541 126.522 252.336 125.467C247.977 121.654 238.422 117.184 220.812 125.629C194.682 138.16 178.358 125.147 176.955 118.398C175.864 113.123 165.649 107.557 157.673 109.75C155.537 110.338 155.648 113.446 157.83 113.831C162.47 114.65 168.208 117.273 169.026 125.147C169.596 130.651 171.797 134.072 174.203 136.192C175.735 137.542 174.59 140.155 172.6 139.841C170.846 139.564 168.948 139.072 167.009 138.249C165.799 137.736 164.872 139.419 165.9 140.255C172.925 145.953 185.976 152.051 207.279 146.834C242.74 138.16 255.337 142.017 256.273 154.549C256.827 162.031 256.884 166.762 256.839 169.361C256.818 170.588 255.674 171.447 254.536 171.094C249.389 169.495 235.022 166.492 209.617 171.658C194.131 174.806 179.628 168.304 170.908 162.97C168.957 161.777 166.873 164.275 168.307 166.089C174.279 173.649 184.853 182.817 200.029 180.612C198.345 180.89 188.731 182.932 180.41 194.445C179.115 196.237 181.048 198.604 182.962 197.558C189.623 193.92 200.113 189.25 210.078 189.25C228.537 189.25 240.39 191.981 247.513 194.599C252.974 196.606 256.477 202.126 256.191 208.108L251.604 303.962C251.604 312.069 309.921 312.069 309.921 303.962L303.615 201.601C303.384 197.862 304.198 194.095 306.146 190.936C309.428 185.614 315.991 181.963 327.655 200.34C338.757 217.827 352.995 219.795 362.709 218.52C365.064 218.211 365.166 214.848 362.836 214.394C352.876 212.45 338.905 206.575 333.097 189.201C332.684 187.962 333.576 186.674 334.843 186.716C343.175 186.992 369.885 187.318 380.835 180.724C391.957 174.032 392.261 193.29 405.63 198.577C407.746 199.415 409.4 196.622 407.713 195.058C403.301 190.965 397.978 184.336 396.827 175.494C396.731 174.758 397.004 174.02 397.571 173.561C398.974 172.426 401.96 170.29 405.703 169.201C406.693 168.913 406.75 167.513 405.791 167.136C401.345 165.382 391.86 163.642 378.505 171.896C363.526 181.159 337.887 171.551 327.755 167.095C326.207 166.414 326.298 164.192 327.896 163.641C341.187 159.064 380.036 143.696 385.109 118.955C385.562 116.748 382.732 115.493 381.474 117.336C378.461 121.753 374.026 127.183 369.109 129.678C368.127 130.176 366.939 129.77 366.439 128.763C364.507 124.874 360.076 115.015 360.645 107.427C360.799 105.385 358.37 104.305 357.1 105.878C353.489 110.348 350.327 118.931 355.53 134.532C355.855 135.506 355.439 136.581 354.551 137.05C350.085 139.411 336.846 145.875 325.784 145.875C317.621 145.875 311.403 149.159 307.755 151.764C306.403 152.729 304.6 151.477 304.979 149.824C307.21 140.107 313.865 122.913 333.72 109.24C357.33 92.9764 369.202 84.8032 372.473 74.7187C373.168 72.5759 370.469 71.019 369.021 72.714C366.406 75.7719 362.759 79.3154 358.484 81.4983C356.833 82.3422 355.04 80.6039 355.731 78.8403C357.129 75.2703 358.81 69.9088 359.064 64.2725C359.172 61.8918 355.779 61.3591 355.09 63.6406C352.764 71.3406 347.128 81.8101 333.72 91.8862C310.773 109.126 299.762 121.741 296.691 135.245C296.311 136.917 294.142 137.24 293.361 135.723C289.492 128.206 283.574 112.087 293.129 96.2262C300.63 83.7681 305.826 74.1723 308.004 66.4334C308.7 63.9614 305.313 62.6106 304.24 64.9342C301.75 70.3294 297.414 76.8122 289.863 83.212C289.863 83.212 281.928 71.6477 280.532 63.9322C279.996 60.9805 281.238 56.6872 282.975 52.5106C283.636 50.9232 282.376 49.5647 281.069 49.5647C280.503 49.5647 279.927 49.8207 279.496 50.4235Z" fill="url(#paint1_linear_77_803)"/>
<mask id="mask3_77_803" style="mask-type:luminance" maskUnits="userSpaceOnUse" x="0" y="4" width="537" height="469">
<path d="M0 4.5H537V472.5H0V276V4.5Z" fill="white"/>
</mask>
<g mask="url(#mask3_77_803)">
<path d="M348.763 87.0565V161.145" stroke="url(#paint2_linear_77_803)" stroke-width="1.94444" stroke-miterlimit="10"/>
<mask id="mask4_77_803" style="mask-type:luminance" maskUnits="userSpaceOnUse" x="334" y="143" width="30" height="31">
<path d="M334.081 143.752H363.445V173.116H334.081V143.752Z" fill="white"/>
</mask>
<g mask="url(#mask4_77_803)">
<g opacity="0.5">
<path d="M334.081 158.434C334.081 150.325 340.655 143.752 348.763 143.752C356.872 143.752 363.445 150.325 363.445 158.434C363.445 166.543 356.872 173.116 348.763 173.116C340.655 173.116 334.081 166.543 334.081 158.434Z" fill="white"/>
</g>
</g>
<path d="M184.775 177.239V239.972" stroke="url(#paint3_linear_77_803)" stroke-width="1.94444" stroke-miterlimit="10"/>
<mask id="mask5_77_803" style="mask-type:luminance" maskUnits="userSpaceOnUse" x="173" y="226" width="23" height="23">
<path d="M173.796 226.781H195.754V248.739H173.796V226.781Z" fill="white"/>
</mask>
<g mask="url(#mask5_77_803)">
<g opacity="0.5">
<path d="M173.796 237.76C173.796 231.696 178.711 226.781 184.775 226.781C190.838 226.781 195.754 231.696 195.754 237.76C195.754 243.823 190.838 248.739 184.775 248.739C178.711 248.739 173.796 243.823 173.796 237.76Z" fill="white"/>
</g>
</g>
<path d="M204.201 57.6736V135.959" stroke="url(#paint4_linear_77_803)" stroke-width="1.94444" stroke-miterlimit="10"/>
<mask id="mask6_77_803" style="mask-type:luminance" maskUnits="userSpaceOnUse" x="195" y="127" width="18" height="18">
<path d="M195.834 127.592H212.568V144.326H195.834V127.592Z" fill="white"/>
</mask>
<g mask="url(#mask6_77_803)">
<g opacity="0.5">
<path d="M195.833 135.959C195.833 131.338 199.58 127.592 204.2 127.592C208.822 127.592 212.567 131.338 212.567 135.959C212.567 140.581 208.822 144.326 204.2 144.326C199.58 144.326 195.833 140.581 195.833 135.959Z" fill="white"/>
</g>
</g>
<path d="M233.565 98.0116V172.1" stroke="url(#paint5_linear_77_803)" stroke-width="1.94444" stroke-miterlimit="10"/>
<path d="M163.994 116.082V190.17" stroke="url(#paint6_linear_77_803)" stroke-width="1.94444" stroke-miterlimit="10"/>
<path d="M218.883 186.782V226.405" stroke="url(#paint7_linear_77_803)" stroke-width="1.94444" stroke-miterlimit="10"/>
<path d="M302.232 79.0375V153.126" stroke="url(#paint8_linear_77_803)" stroke-width="1.94444" stroke-miterlimit="10"/>
<path d="M342.438 183.144V239.863" stroke="url(#paint9_linear_77_803)" stroke-width="1.94444" stroke-miterlimit="10"/>
<path d="M377.317 131.837V205.926" stroke="url(#paint10_linear_77_803)" stroke-width="1.94444" stroke-miterlimit="10"/>
<mask id="mask7_77_803" style="mask-type:luminance" maskUnits="userSpaceOnUse" x="368" y="193" width="21" height="22">
<path d="M368.203 193.276H388.955V214.028H368.203V193.276Z" fill="white"/>
</mask>
<g mask="url(#mask7_77_803)">
<g opacity="0.5">
<path d="M368.203 203.652C368.203 197.922 372.848 193.276 378.579 193.276C384.31 193.276 388.955 197.922 388.955 203.652C388.955 209.383 384.31 214.029 378.579 214.029C372.848 214.029 368.203 209.383 368.203 203.652Z" fill="white"/>
</g>
</g>
<mask id="mask8_77_803" style="mask-type:luminance" maskUnits="userSpaceOnUse" x="332" y="225" width="21" height="21">
<path d="M332.241 225.181H352.636V245.576H332.241V225.181Z" fill="white"/>
</mask>
<g mask="url(#mask8_77_803)">
<g opacity="0.5">
<path d="M332.241 235.379C332.241 229.747 336.807 225.181 342.439 225.181C348.07 225.181 352.636 229.747 352.636 235.379C352.636 241.01 348.07 245.576 342.439 245.576C336.807 245.576 332.241 241.01 332.241 235.379Z" fill="white"/>
</g>
</g>
<mask id="mask9_77_803" style="mask-type:luminance" maskUnits="userSpaceOnUse" x="207" y="212" width="24" height="24">
<path d="M207.358 212.454H230.407V235.502H207.358V212.454Z" fill="white"/>
</mask>
<g mask="url(#mask9_77_803)">
<g opacity="0.5">
<path d="M207.358 223.978C207.358 217.613 212.518 212.454 218.882 212.454C225.247 212.454 230.407 217.613 230.407 223.978C230.407 230.343 225.247 235.502 218.882 235.502C212.518 235.502 207.358 230.343 207.358 223.978Z" fill="white"/>
</g>
</g>
<mask id="mask10_77_803" style="mask-type:luminance" maskUnits="userSpaceOnUse" x="151" y="176" width="22" height="21">
<path d="M151.78 176.601H172.142V196.963H151.78V176.601Z" fill="white"/>
</mask>
<g mask="url(#mask10_77_803)">
<g opacity="0.5">
<path d="M151.78 186.782C151.78 181.159 156.338 176.601 161.961 176.601C167.584 176.601 172.142 181.159 172.142 186.782C172.142 192.405 167.584 196.963 161.961 196.963C156.338 196.963 151.78 192.405 151.78 186.782Z" fill="white"/>
</g>
</g>
<mask id="mask11_77_803" style="mask-type:luminance" maskUnits="userSpaceOnUse" x="222" y="160" width="23" height="22">
<path d="M222.833 160.128H244.296V181.591H222.833V160.128Z" fill="white"/>
</mask>
<g mask="url(#mask11_77_803)">
<g opacity="0.5">
<path d="M222.833 170.859C222.833 164.933 227.638 160.128 233.565 160.128C239.492 160.128 244.296 164.933 244.296 170.859C244.296 176.786 239.492 181.591 233.565 181.591C227.638 181.591 222.833 176.786 222.833 170.859Z" fill="white"/>
</g>
</g>
<mask id="mask12_77_803" style="mask-type:luminance" maskUnits="userSpaceOnUse" x="287" y="147" width="30" height="31">
<path d="M287.55 147.875H316.914V177.239H287.55V147.875Z" fill="white"/>
</mask>
<g mask="url(#mask12_77_803)">
<g opacity="0.5">
<path d="M287.55 162.557C287.55 154.448 294.123 147.875 302.232 147.875C310.341 147.875 316.914 154.448 316.914 162.557C316.914 170.666 310.341 177.239 302.232 177.239C294.123 177.239 287.55 170.666 287.55 162.557Z" fill="white"/>
</g>
</g>
<path d="M227.095 170.86C227.095 167.286 229.991 164.389 233.565 164.389C237.138 164.389 240.036 167.286 240.036 170.86C240.036 174.433 237.138 177.33 233.565 177.33C229.991 177.33 227.095 174.433 227.095 170.86Z" fill="white"/>
<path d="M293.786 162.557C293.786 157.982 297.494 154.273 302.07 154.273C306.645 154.273 310.354 157.982 310.354 162.557C310.354 167.132 306.645 170.841 302.07 170.841C297.494 170.841 293.786 167.132 293.786 162.557Z" fill="white"/>
<path d="M340.479 158.497C340.479 153.922 344.188 150.213 348.763 150.213C353.338 150.213 357.047 153.922 357.047 158.497C357.047 163.073 353.338 166.781 348.763 166.781C344.188 166.781 340.479 163.073 340.479 158.497Z" fill="white"/>
<path d="M371.726 203.467C371.726 199.971 374.56 197.137 378.055 197.137C381.552 197.137 384.386 199.971 384.386 203.467C384.386 206.963 381.552 209.797 378.055 209.797C374.56 209.797 371.726 206.963 371.726 203.467Z" fill="white"/>
<path d="M336.65 235.009C336.65 231.464 339.524 228.591 343.068 228.591C346.612 228.591 349.486 231.464 349.486 235.009C349.486 238.554 346.612 241.427 343.068 241.427C339.524 241.427 336.65 238.554 336.65 235.009Z" fill="white"/>
<path d="M211.906 223.963C211.906 220.11 215.029 216.986 218.882 216.986C222.736 216.986 225.86 220.11 225.86 223.963C225.86 227.816 222.736 230.939 218.882 230.939C215.029 230.939 211.906 227.816 211.906 223.963Z" fill="white"/>
<path d="M177.961 237.76C177.961 233.906 181.084 230.783 184.938 230.783C188.791 230.783 191.915 233.906 191.915 237.76C191.915 241.613 188.791 244.736 184.938 244.736C181.084 244.736 177.961 241.613 177.961 237.76Z" fill="white"/>
<path d="M155.531 186.64C155.531 183.04 158.449 180.123 162.048 180.123C165.646 180.123 168.564 183.04 168.564 186.64C168.564 190.239 165.646 193.156 162.048 193.156C158.449 193.156 155.531 190.239 155.531 186.64Z" fill="white"/>
<path d="M199.249 135.391C199.249 132.656 201.466 130.439 204.2 130.439C206.935 130.439 209.152 132.656 209.152 135.391C209.152 138.125 206.935 140.342 204.2 140.342C201.466 140.342 199.249 138.125 199.249 135.391Z" fill="white"/>
<path d="M282.806 221.152V225.14C282.806 225.32 282.66 225.466 282.48 225.466H278.492C278.311 225.466 278.165 225.32 278.165 225.14V221.152C278.165 220.971 278.019 220.825 277.838 220.825H275.474C275.183 220.825 275.037 220.474 275.242 220.267L280.254 215.255C280.382 215.128 280.589 215.128 280.717 215.255L285.729 220.267C285.935 220.474 285.789 220.825 285.498 220.825H283.133C282.953 220.825 282.806 220.971 282.806 221.152ZM289.014 217.391C288.225 213.388 284.709 210.383 280.486 210.383C277.133 210.383 274.22 212.286 272.77 215.071C269.278 215.442 266.563 218.401 266.563 221.986C266.563 225.826 269.684 228.947 273.524 228.947H288.607C291.81 228.947 294.409 226.348 294.409 223.146C294.409 220.083 292.03 217.6 289.014 217.391Z" fill="#97B1DC"/>
<mask id="mask13_77_803" style="mask-type:luminance" maskUnits="userSpaceOnUse" x="372" y="199" width="12" height="10">
<path d="M372.555 199.717H383.556V208.545H372.555V199.717Z" fill="white"/>
</mask>
<g mask="url(#mask13_77_803)">
<g opacity="0.5">
<path d="M379.411 207.189C379.411 207.939 378.805 208.545 378.055 208.545C377.307 208.545 376.7 207.939 376.7 207.189C376.7 206.815 376.853 206.478 377.097 206.234H377.1C377.344 205.989 377.681 205.837 378.055 205.837C378.43 205.837 378.77 205.989 379.015 206.234C379.259 206.478 379.411 206.815 379.411 207.189Z" fill="#97B1DC"/>
<path d="M383.309 202.777L383.308 202.778C383.004 203.082 382.525 203.097 382.189 202.83C381.053 201.925 379.615 201.384 378.053 201.384C376.495 201.384 375.058 201.925 373.922 202.83C373.586 203.097 373.107 203.082 372.803 202.778L372.802 202.777C372.457 202.432 372.472 201.856 372.852 201.551C374.279 200.405 376.086 199.717 378.053 199.717C380.021 199.717 381.831 200.405 383.259 201.551C383.639 201.856 383.654 202.432 383.309 202.777Z" fill="#97B1DC"/>
<path d="M381.133 204.953C380.849 205.237 380.407 205.277 380.076 205.051C379.501 204.659 378.804 204.428 378.054 204.428C377.188 204.428 376.486 204.769 376.04 205.063C375.706 205.283 375.266 205.244 374.984 204.961L374.975 204.952C374.614 204.59 374.654 203.979 375.076 203.688C375.922 203.104 376.948 202.762 378.054 202.762C379.159 202.762 380.185 203.104 381.033 203.688C381.455 203.978 381.496 204.59 381.133 204.953Z" fill="#97B1DC"/>
</g>
</g>
<mask id="mask14_77_803" style="mask-type:luminance" maskUnits="userSpaceOnUse" x="201" y="132" width="7" height="7">
<path d="M201.093 132.197H207.308V138.585H201.093V132.197Z" fill="white"/>
</mask>
<g mask="url(#mask14_77_803)">
<g opacity="0.5">
<path d="M205.423 134.738C205.497 134.883 205.549 135.047 205.574 135.231C205.58 135.27 205.582 135.314 205.581 135.36C205.577 135.56 205.517 135.801 205.429 135.951C204.752 137.095 203.136 136.783 202.923 135.49C202.92 135.468 202.916 135.447 202.914 135.426C202.888 135.223 202.952 134.912 203.054 134.736C203.107 134.644 203.167 134.561 203.23 134.486C203.873 133.748 204.998 133.913 205.423 134.738ZM206.674 137.457L206.971 136.948L206.977 136.936C207.013 136.873 206.997 136.794 206.94 136.752L206.544 136.46C206.537 136.455 206.531 136.45 206.526 136.444C206.488 136.404 206.476 136.345 206.499 136.295C206.626 135.993 206.693 135.671 206.693 135.343C206.694 135.33 206.696 135.317 206.699 135.304C206.713 135.258 206.752 135.22 206.801 135.208L207.2 135.112C207.253 135.099 207.293 135.057 207.304 135.006C207.308 134.991 207.309 134.974 207.307 134.957L207.23 134.36C207.221 134.287 207.155 134.232 207.081 134.235L206.535 134.259C206.481 134.261 206.431 134.232 206.406 134.184C206.369 134.116 206.33 134.049 206.286 133.983C206.205 133.86 206.114 133.747 206.015 133.644L206.015 133.644C205.974 133.601 205.963 133.538 205.989 133.484L206.227 132.983L206.238 132.957C206.269 132.893 206.245 132.815 206.183 132.778L205.663 132.474C205.599 132.438 205.518 132.454 205.474 132.513L205.148 132.953C205.112 133.003 205.048 133.023 204.991 133.004C204.749 132.927 204.495 132.887 204.241 132.888C204.176 132.888 204.12 132.844 204.105 132.78L203.99 132.307C203.972 132.235 203.904 132.189 203.832 132.198L203.232 132.276C203.161 132.285 203.11 132.347 203.113 132.417L203.14 133.059C203.143 133.114 203.114 133.164 203.066 133.191C203.007 133.223 202.95 133.258 202.893 133.296C202.785 133.368 202.685 133.445 202.593 133.529C202.552 133.567 202.491 133.577 202.44 133.552L201.838 133.266C201.771 133.235 201.693 133.259 201.656 133.322L201.351 133.845C201.319 133.9 201.329 133.97 201.373 134.014C201.378 134.019 201.383 134.024 201.389 134.028L201.877 134.39C201.923 134.423 201.944 134.48 201.931 134.534C201.93 134.539 201.929 134.544 201.927 134.549C201.922 134.563 201.918 134.576 201.914 134.591C201.861 134.757 201.825 134.93 201.808 135.104C201.803 135.163 201.76 135.212 201.702 135.225L201.202 135.346C201.131 135.363 201.085 135.431 201.094 135.504L201.111 135.637L201.171 136.1C201.18 136.173 201.244 136.226 201.318 136.223L201.855 136.199C201.913 136.197 201.964 136.231 201.987 136.284C202.045 136.422 202.119 136.559 202.205 136.69C202.27 136.787 202.341 136.879 202.416 136.964L202.366 137.069L202.162 137.5C202.136 137.553 202.148 137.617 202.189 137.657C202.197 137.666 202.207 137.673 202.217 137.678L202.741 137.986C202.803 138.021 202.882 138.004 202.924 137.947L203.147 137.646C203.184 137.596 203.253 137.575 203.312 137.599C203.554 137.699 203.81 137.759 204.07 137.778C204.131 137.783 204.182 137.825 204.195 137.883L204.339 138.482C204.356 138.548 204.42 138.592 204.488 138.584L205.094 138.505C205.166 138.496 205.218 138.434 205.215 138.362L205.186 137.695C205.183 137.637 205.216 137.584 205.269 137.561C205.381 137.509 205.491 137.448 205.598 137.376C205.656 137.338 205.711 137.298 205.764 137.256C205.806 137.223 205.863 137.217 205.912 137.239L206.489 137.513C206.556 137.545 206.636 137.521 206.674 137.457Z" fill="#97B1DC"/>
</g>
</g>
<mask id="mask15_77_803" style="mask-type:luminance" maskUnits="userSpaceOnUse" x="180" y="233" width="10" height="10">
<path d="M180.215 233.314H189.336V242.688H180.215V233.314Z" fill="white"/>
</mask>
<g mask="url(#mask15_77_803)">
<g opacity="0.5">
<path d="M186.569 237.042C186.678 237.255 186.755 237.497 186.791 237.766C186.799 237.823 186.802 237.888 186.801 237.956C186.795 238.249 186.707 238.603 186.577 238.823C185.585 240.502 183.214 240.044 182.901 238.146C182.896 238.114 182.891 238.083 182.887 238.052C182.849 237.755 182.943 237.298 183.092 237.04C183.171 236.904 183.258 236.782 183.352 236.674C184.294 235.591 185.946 235.831 186.569 237.042ZM188.405 241.032L188.84 240.286L188.851 240.268C188.903 240.176 188.879 240.061 188.795 239.999L188.214 239.57C188.204 239.562 188.196 239.555 188.187 239.546C188.133 239.488 188.115 239.402 188.148 239.327C188.335 238.884 188.432 238.411 188.434 237.931C188.434 237.912 188.437 237.892 188.442 237.874C188.463 237.805 188.52 237.75 188.591 237.732L189.177 237.591C189.254 237.573 189.313 237.51 189.33 237.436C189.335 237.414 189.337 237.389 189.333 237.364L189.221 236.488C189.207 236.38 189.112 236.3 189.002 236.305L188.201 236.34C188.122 236.343 188.049 236.301 188.012 236.23C187.958 236.13 187.9 236.032 187.836 235.935C187.716 235.755 187.583 235.589 187.438 235.438C187.377 235.374 187.362 235.282 187.399 235.203L187.748 234.467L187.766 234.43C187.811 234.336 187.776 234.22 187.684 234.167L186.92 233.721C186.827 233.667 186.708 233.691 186.644 233.778L186.166 234.425C186.113 234.496 186.019 234.526 185.936 234.498C185.58 234.385 185.208 234.327 184.834 234.328C184.739 234.327 184.657 234.262 184.634 234.169L184.466 233.475C184.441 233.369 184.341 233.302 184.234 233.316L183.354 233.428C183.251 233.442 183.175 233.533 183.179 233.637L183.219 234.579C183.223 234.659 183.181 234.733 183.111 234.772C183.024 234.82 182.939 234.871 182.855 234.927C182.698 235.031 182.551 235.146 182.416 235.268C182.355 235.325 182.267 235.339 182.192 235.303L181.308 234.883C181.21 234.837 181.095 234.873 181.041 234.965L180.593 235.731C180.546 235.813 180.561 235.916 180.626 235.981C180.633 235.988 180.64 235.995 180.649 236L181.366 236.531C181.432 236.58 181.464 236.663 181.445 236.744C181.444 236.751 181.442 236.758 181.44 236.765C181.432 236.786 181.425 236.805 181.42 236.827C181.341 237.071 181.289 237.324 181.264 237.58C181.257 237.666 181.193 237.737 181.108 237.757L180.375 237.935C180.271 237.96 180.203 238.06 180.217 238.166L180.241 238.361L180.33 239.041C180.343 239.148 180.436 239.226 180.545 239.222L181.333 239.188C181.418 239.183 181.494 239.233 181.527 239.311C181.613 239.514 181.72 239.715 181.847 239.907C181.942 240.049 182.046 240.184 182.156 240.308L182.083 240.463L181.784 241.097C181.746 241.174 181.763 241.268 181.823 241.326C181.835 241.339 181.849 241.349 181.865 241.358L182.633 241.808C182.724 241.861 182.84 241.835 182.902 241.752L183.229 241.31C183.284 241.236 183.385 241.207 183.471 241.242C183.827 241.388 184.203 241.476 184.583 241.504C184.673 241.511 184.748 241.573 184.767 241.659L184.979 242.536C185.004 242.635 185.096 242.699 185.198 242.686L186.087 242.571C186.192 242.557 186.269 242.466 186.264 242.362L186.222 241.382C186.218 241.297 186.266 241.22 186.343 241.185C186.508 241.11 186.669 241.019 186.826 240.914C186.911 240.859 186.992 240.8 187.07 240.738C187.132 240.69 187.215 240.68 187.286 240.713L188.134 241.115C188.232 241.162 188.348 241.126 188.405 241.032Z" fill="#97B1DC"/>
</g>
</g>
<mask id="mask16_77_803" style="mask-type:luminance" maskUnits="userSpaceOnUse" x="156" y="183" width="12" height="8">
<path d="M156.54 183.056H167.382V190.223H156.54V183.056Z" fill="white"/>
</mask>
<g mask="url(#mask16_77_803)">
<g opacity="0.5">
<path d="M158.537 183.215C158.305 182.983 157.924 183.008 157.72 183.264C156.982 184.19 156.541 185.363 156.541 186.64C156.541 187.915 156.982 189.089 157.72 190.015C157.924 190.271 158.305 190.295 158.537 190.064C158.728 189.873 158.755 189.565 158.585 189.355C157.985 188.615 157.625 187.669 157.625 186.64C157.625 185.61 157.985 184.664 158.585 183.923C158.755 183.713 158.728 183.406 158.537 183.215ZM166.298 186.64C166.298 187.669 165.938 188.615 165.338 189.355C165.167 189.565 165.195 189.873 165.386 190.064C165.617 190.295 165.999 190.271 166.202 190.015C166.941 189.089 167.383 187.915 167.383 186.64C167.383 185.363 166.941 184.19 166.202 183.264C165.999 183.008 165.617 182.983 165.386 183.215C165.195 183.406 165.167 183.713 165.338 183.923C165.938 184.664 166.298 185.61 166.298 186.64ZM161.962 185.555C161.365 185.555 160.877 186.043 160.877 186.64C160.877 187.236 161.365 187.724 161.962 187.724C162.558 187.724 163.046 187.236 163.046 186.64C163.046 186.043 162.558 185.555 161.962 185.555ZM163.837 188.515C164.073 188.751 164.477 188.728 164.664 188.451C165.012 187.934 165.214 187.311 165.214 186.64C165.214 185.968 165.012 185.345 164.664 184.829C164.477 184.551 164.073 184.527 163.837 184.764L163.834 184.767C163.649 184.951 163.629 185.236 163.773 185.454C163.999 185.794 164.13 186.202 164.13 186.64C164.13 187.078 163.998 187.487 163.773 187.83C163.631 188.047 163.653 188.331 163.836 188.514L163.837 188.515ZM160.086 188.515C159.849 188.751 159.446 188.728 159.259 188.451C158.911 187.934 158.709 187.311 158.709 186.64C158.709 185.968 158.911 185.345 159.259 184.829C159.446 184.551 159.849 184.527 160.086 184.764L160.089 184.767C160.273 184.951 160.294 185.236 160.15 185.454C159.924 185.794 159.793 186.202 159.793 186.64C159.793 187.078 159.925 187.487 160.15 187.83C160.292 188.047 160.27 188.331 160.087 188.514L160.086 188.515Z" fill="#97B1DC"/>
</g>
</g>
<mask id="mask17_77_803" style="mask-type:luminance" maskUnits="userSpaceOnUse" x="213" y="220" width="12" height="8">
<path d="M213.932 220.394H224.774V227.562H213.932V220.394Z" fill="white"/>
</mask>
<g mask="url(#mask17_77_803)">
<g opacity="0.5">
<path d="M215.929 220.553C215.698 220.322 215.316 220.346 215.112 220.602C214.374 221.529 213.933 222.702 213.933 223.978C213.933 225.254 214.374 226.427 215.112 227.354C215.316 227.609 215.698 227.634 215.929 227.403C216.12 227.212 216.147 226.904 215.978 226.694C215.377 225.953 215.017 225.007 215.017 223.978C215.017 222.948 215.377 222.003 215.978 221.262C216.147 221.052 216.12 220.744 215.929 220.553ZM223.69 223.978C223.69 225.007 223.33 225.953 222.73 226.694C222.559 226.904 222.587 227.212 222.779 227.403C223.009 227.634 223.391 227.609 223.595 227.354C224.333 226.427 224.775 225.254 224.775 223.978C224.775 222.702 224.333 221.529 223.595 220.602C223.391 220.346 223.009 220.322 222.779 220.553C222.587 220.744 222.559 221.052 222.73 221.262C223.33 222.003 223.69 222.948 223.69 223.978ZM219.354 222.894C218.757 222.894 218.269 223.382 218.269 223.978C218.269 224.574 218.757 225.062 219.354 225.062C219.95 225.062 220.438 224.574 220.438 223.978C220.438 223.382 219.95 222.894 219.354 222.894ZM221.229 225.853C221.465 226.09 221.869 226.066 222.056 225.789C222.404 225.272 222.606 224.649 222.606 223.978C222.606 223.307 222.404 222.684 222.056 222.167C221.869 221.89 221.465 221.866 221.229 222.102L221.226 222.105C221.042 222.29 221.021 222.575 221.165 222.793C221.391 223.133 221.522 223.54 221.522 223.978C221.522 224.416 221.39 224.826 221.165 225.169C221.023 225.386 221.045 225.669 221.228 225.852L221.229 225.853ZM217.478 225.853C217.241 226.09 216.838 226.066 216.651 225.789C216.303 225.272 216.101 224.649 216.101 223.978C216.101 223.307 216.303 222.684 216.651 222.167C216.838 221.89 217.241 221.866 217.478 222.102L217.481 222.105C217.665 222.29 217.686 222.575 217.542 222.793C217.316 223.133 217.185 223.54 217.185 223.978C217.185 224.416 217.317 224.826 217.542 225.169C217.684 225.386 217.662 225.669 217.479 225.852L217.478 225.853Z" fill="#97B1DC"/>
</g>
</g>
<mask id="mask18_77_803" style="mask-type:luminance" maskUnits="userSpaceOnUse" x="343" y="153" width="12" height="10">
<path d="M343.262 153.829H354.264V162.657H343.262V153.829Z" fill="white"/>
</mask>
<g mask="url(#mask18_77_803)">
<g opacity="0.5">
<path d="M350.119 161.302C350.119 162.051 349.512 162.658 348.763 162.658C348.014 162.658 347.408 162.051 347.408 161.302C347.408 160.927 347.56 160.591 347.804 160.346H347.808C348.052 160.101 348.388 159.949 348.763 159.949C349.138 159.949 349.478 160.101 349.722 160.346C349.967 160.591 350.119 160.927 350.119 161.302Z" fill="#97B1DC"/>
<path d="M354.017 156.89L354.016 156.89C353.712 157.194 353.233 157.21 352.897 156.942C351.76 156.037 350.323 155.496 348.761 155.496C347.203 155.496 345.766 156.037 344.629 156.942C344.293 157.21 343.815 157.194 343.511 156.89L343.509 156.89C343.165 156.545 343.18 155.969 343.56 155.663C344.987 154.517 346.794 153.83 348.761 153.83C350.728 153.83 352.539 154.517 353.966 155.663C354.346 155.969 354.361 156.545 354.017 156.89Z" fill="#97B1DC"/>
<path d="M351.84 159.066C351.557 159.349 351.114 159.39 350.784 159.164C350.208 158.771 349.512 158.541 348.761 158.541C347.896 158.541 347.194 158.881 346.748 159.175C346.414 159.396 345.974 159.356 345.691 159.073L345.683 159.065C345.322 158.702 345.361 158.091 345.783 157.8C346.629 157.217 347.655 156.875 348.761 156.875C349.867 156.875 350.893 157.217 351.74 157.8C352.163 158.09 352.203 158.703 351.84 159.066Z" fill="#97B1DC"/>
</g>
</g>
<mask id="mask19_77_803" style="mask-type:luminance" maskUnits="userSpaceOnUse" x="299" y="157" width="7" height="11">
<path d="M299.015 157.563H305.124V167.751H299.015V157.563Z" fill="white"/>
</mask>
<g mask="url(#mask19_77_803)">
<g opacity="0.5">
<path d="M302.942 161.56L302.494 164.953H301.646L301.197 161.547L301.33 161.386L301.597 161.707L301.976 161.355L302.358 161.693L302.72 161.358L302.942 161.56Z" fill="#97B1DC"/>
<path d="M305.124 160.616C305.124 160.918 305.08 161.212 304.997 161.488C304.761 162.277 304.501 163.058 304.297 163.856L304.017 164.952H302.77L303.236 161.452L302.721 160.982L302.355 161.319L301.973 160.982L301.621 161.306L301.331 160.951L300.907 161.463L301.37 164.952H300.123L299.863 163.933L299.154 161.527C299.06 161.225 299.01 160.904 299.016 160.569C299.041 158.883 300.495 157.504 302.178 157.565C303.814 157.62 305.124 158.966 305.124 160.616Z" fill="#97B1DC"/>
<path d="M303.912 165.725L302.829 165.932L303.851 165.997L303.742 166.498H300.397L300.292 166.021C300.425 166.019 300.594 166.016 300.766 166.01C301.132 166.008 301.497 166.002 301.497 166.002C301.497 166.002 301.137 165.938 300.777 165.875C300.594 165.841 300.414 165.811 300.279 165.788C300.264 165.786 300.253 165.786 300.242 165.783L300.121 165.229H304.02L303.912 165.725Z" fill="#97B1DC"/>
<path d="M300.432 166.794H303.709C303.05 168.065 301.104 168.071 300.437 166.804L300.432 166.794Z" fill="#97B1DC"/>
</g>
</g>
<mask id="mask20_77_803" style="mask-type:luminance" maskUnits="userSpaceOnUse" x="230" y="165" width="7" height="12">
<path d="M230.51 165.837H236.619V176.026H230.51V165.837Z" fill="white"/>
</mask>
<g mask="url(#mask20_77_803)">
<g opacity="0.5">
<path d="M234.437 169.835L233.989 173.228H233.142L232.692 169.822L232.826 169.661L233.092 169.982L233.471 169.631L233.853 169.968L234.216 169.633L234.437 169.835Z" fill="#97B1DC"/>
<path d="M236.619 168.891C236.619 169.193 236.575 169.487 236.492 169.764C236.256 170.552 235.997 171.333 235.792 172.131L235.512 173.227H234.266L234.731 169.727L234.216 169.257L233.851 169.594L233.468 169.257L233.117 169.581L232.826 169.226L232.402 169.738L232.865 173.227H231.618L231.358 172.208L230.649 169.802C230.555 169.5 230.505 169.179 230.511 168.844C230.536 167.158 231.99 165.779 233.673 165.84C235.31 165.895 236.619 167.241 236.619 168.891Z" fill="#97B1DC"/>
<path d="M235.407 174L234.324 174.208L235.346 174.272L235.238 174.773H231.892L231.787 174.296C231.92 174.294 232.09 174.291 232.261 174.285C232.627 174.283 232.992 174.277 232.992 174.277C232.992 174.277 232.632 174.213 232.272 174.15C232.09 174.116 231.909 174.086 231.774 174.064C231.76 174.061 231.749 174.061 231.738 174.058L231.616 173.504H235.515L235.407 174Z" fill="#97B1DC"/>
<path d="M231.927 175.069H235.204C234.545 176.341 232.6 176.346 231.932 175.079L231.927 175.069Z" fill="#97B1DC"/>
</g>
</g>
<mask id="mask21_77_803" style="mask-type:luminance" maskUnits="userSpaceOnUse" x="338" y="230" width="9" height="10">
<path d="M338.525 230.153H346.644V239.496H338.525V230.153Z" fill="white"/>
</mask>
<g mask="url(#mask21_77_803)">
<g opacity="0.5">
<path d="M344.05 235.202L344.985 235.387C344.994 235.845 345.374 236.209 345.832 236.199C346.29 236.189 346.654 235.81 346.644 235.352C346.634 234.894 346.255 234.53 345.797 234.54C345.475 234.546 345.186 234.739 345.056 235.033L344.097 234.843C344.096 234.492 343.96 234.155 343.716 233.903L344.957 232.15C345.48 232.399 346.106 232.177 346.355 231.653C346.603 231.13 346.381 230.504 345.858 230.255C345.334 230.006 344.709 230.229 344.46 230.752C344.27 231.151 344.351 231.627 344.662 231.941L343.434 233.677C342.869 233.338 342.142 233.452 341.707 233.948L340.095 232.695C340.306 232.288 340.147 231.785 339.74 231.574C339.332 231.362 338.83 231.521 338.619 231.928C338.407 232.336 338.566 232.838 338.973 233.05C339.259 233.198 339.606 233.168 339.862 232.972L341.506 234.249C341.233 234.807 341.372 235.479 341.845 235.883L340.846 237.296C340.317 236.974 339.627 237.143 339.307 237.672C338.986 238.201 339.154 238.89 339.683 239.211C340.212 239.533 340.901 239.364 341.222 238.834C341.472 238.424 341.431 237.899 341.121 237.532L342.147 236.08C342.499 236.247 342.904 236.256 343.262 236.105L344.48 237.904C344.122 238.282 344.138 238.88 344.517 239.238C344.896 239.596 345.492 239.579 345.851 239.201C346.209 238.822 346.192 238.225 345.814 237.867C345.535 237.602 345.123 237.534 344.774 237.694L343.573 235.921C343.806 235.739 343.973 235.487 344.05 235.202Z" fill="#97B1DC"/>
</g>
</g>
<path d="M121.634 242.903C119.73 247.302 121.306 252.368 125.051 254.158C128.822 255.96 132.944 254.936 134.849 250.537C136.753 246.137 135.339 240.862 131.69 238.754C128.04 236.646 123.538 238.503 121.634 242.903Z" fill="#2C3282"/>
<path d="M126.076 260.022C123.909 260.583 121.172 267.541 119.832 271.998C118.481 276.495 116.189 282.072 114.69 283.804C113.189 285.538 103.332 289.555 103.332 289.555C103.332 289.555 127.687 289.609 127.188 289.554C126.689 289.498 126.076 260.022 126.076 260.022Z" fill="#A4DDF0"/>
<path d="M113.146 287.32C114.479 287.099 119.289 287.815 117.242 286.825C115.193 285.834 115.479 284.569 115.479 284.569C115.479 284.569 118.384 287.375 118.908 284.922C119.36 282.806 119.533 275.337 121.247 267.851C122.663 264.139 124.517 260.426 126.076 260.022C126.076 260.022 126.131 262.658 126.221 266.354C125.623 274.533 124.608 286.548 124.35 289.577C121.122 289.583 115.719 289.577 111.199 289.57L108.193 289.404C108.193 289.404 111.813 287.54 113.146 287.32Z" fill="#83C8DA"/>
<path d="M134.045 258.48C134.045 258.48 140.939 262.93 142.547 263.877C144.154 264.823 138.044 292.604 136.686 293.794C135.326 294.984 123.363 293.999 122.002 292.499C120.639 290.999 123.047 286.396 121.868 277.178C120.689 267.962 125.463 260.004 126.076 260.022C126.69 260.04 130.692 258.48 130.692 258.48H134.045Z" fill="#A4DDF0"/>
<path d="M136.685 293.794C135.327 294.985 126.766 295.011 123.122 293.701C122.711 293.554 120.844 292.694 120.8 291.886C121.24 291.791 122.985 292.033 123.694 291.845C126.159 291.19 127.516 287.664 127.516 287.664C127.516 287.664 128.873 287.1 131.909 285.614C134.945 284.129 135.625 279.454 135.696 277.473C135.767 275.492 136.766 269.193 142.267 264.283L142.771 264.544C143.164 269.059 137.942 292.693 136.685 293.794Z" fill="#83C8DA"/>
<path d="M90.9625 273.9H107.564L115.125 292.488H96.8386L89.9942 275.662C89.6604 274.842 90.1782 273.9 90.9625 273.9Z" fill="#333332"/>
<path d="M114.136 292.751H124.126C124.745 292.751 125.248 292.171 125.248 291.455C125.248 290.739 124.745 290.159 124.126 290.159H114.852L108.582 274.57C108.321 273.921 107.653 273.639 107.091 273.941C106.529 274.242 106.286 275.013 106.547 275.662L113.118 292.001C113.302 292.459 113.699 292.751 114.136 292.751Z" fill="#181818"/>
<path d="M143.088 264.398C145.102 271.837 147.35 279.884 148.809 285.067C149.587 287.833 147.849 290.683 145.331 290.773C139.401 290.986 130.31 291.243 129.796 290.735C129.047 289.994 129.26 287.146 129.368 286.775C129.475 286.404 140.21 284.203 140.21 284.203C140.21 284.203 138.797 281.021 138.261 274.8C137.725 268.58 142.458 262.072 143.088 264.398Z" fill="#A4DDF0"/>
<path d="M129.814 286.88C125.48 287.815 124.415 288.964 122.052 289.404C119.374 289.903 119.693 290.587 121.681 290.587C123.671 290.587 128.668 290.676 130.384 290.236C132.1 289.796 129.814 286.88 129.814 286.88Z" fill="#FAB17E"/>
<path d="M131.52 247.82L134.195 259.115C134.195 259.115 129.674 267.266 128.431 266.542C127.188 265.818 129.126 259.916 129.126 259.115C129.126 258.313 127.188 250.038 127.188 250.038L131.52 247.82Z" fill="#FAB17E"/>
<path d="M129.033 259.69C129.091 259.423 129.126 259.222 129.126 259.115C129.126 258.313 127.188 250.038 127.188 250.038L131.519 247.82L132.405 251.557C131.632 255.418 130.237 257.99 129.033 259.69Z" fill="#ED975E"/>
<path d="M121.223 248.997C121.436 252.315 122.7 256.431 125.377 256.777C128.054 257.123 130.534 254.2 130.917 250.249C131.299 246.298 129.439 242.815 126.762 242.469C124.085 242.123 120.968 245.032 121.223 248.997Z" fill="#FAB17E"/>
<path d="M130.029 249.476C129.676 250.622 129.982 251.793 130.713 252.093C131.444 252.394 132.323 251.71 132.676 250.565C133.028 249.42 132.722 248.248 131.991 247.947C131.26 247.647 130.381 248.332 130.029 249.476Z" fill="#F0995A"/>
<path d="M121.479 243.519C122.336 251.204 130.419 250.214 130.419 250.214C130.419 250.214 132.086 247.682 132.837 249.01C133.586 250.338 131.796 241.218 127.157 240.931C125.634 240.837 121.479 243.519 121.479 243.519Z" fill="#2C3282"/>
<path d="M110.179 292.559C104.988 291.65 103.224 291.936 100.048 298.766C96.871 305.595 92.6424 317.892 90.2112 319.48C86.5492 321.871 85.3359 327.735 83.8322 327.471C82.3291 327.208 81.3614 327.976 82.9974 329.547C84.6333 331.117 87.2751 332.455 88.1787 332.176C89.0822 331.897 89.7828 327.388 92.1427 325.924C94.502 324.46 93.7936 323.257 93.638 321.962C93.4831 320.666 100.526 314.703 105.835 307.288C109.079 302.756 110.75 299.764 110.997 297.054C111.245 294.343 110.179 292.559 110.179 292.559Z" fill="#FAB17E"/>
<path d="M97.311 317.323C98.5166 313.79 99.7254 307.96 100.862 302.614C102.479 295.011 104.173 293.207 105.246 292.395C106.544 292.02 108.081 292.192 110.179 292.559C110.179 292.559 111.245 294.343 110.997 297.054C110.75 299.765 109.079 302.756 105.835 307.288C103.039 311.192 99.7643 314.693 97.311 317.323Z" fill="#ED975E"/>
<path d="M108.598 298.57C108.598 298.57 109.979 310.608 111.265 311.831C112.185 312.706 112.836 312.764 113.479 309.174C114.122 305.584 112.479 292.184 112.479 292.184L108.598 298.57Z" fill="#12294B"/>
<path d="M109.698 305.084L122.48 307.565L115.264 295.612L109.772 294.32L106.479 295.195L109.698 305.084Z" fill="#F0995A"/>
<path d="M136.267 293.041C140.802 302.443 137.704 308.417 132.192 309.027C126.68 309.635 117.98 308.472 112.908 303.604C107.836 298.735 103.673 293.587 104.255 292.819C104.836 292.051 136.267 293.041 136.267 293.041Z" fill="#ED975E"/>
<path d="M110.55 300.055C109.622 296.837 108.552 294.368 106.479 294.323C104.3 294.276 102.959 295.586 102.866 299.704C102.755 304.608 102.606 320.85 102.802 328.071C102.95 333.538 101.571 335.288 101.688 340.987C101.775 345.279 97.8143 343.111 99.3446 345.337C100.397 346.867 103.528 346.367 105.453 346.084C107.166 345.832 104.565 339.898 106.938 338.311C108.974 336.95 109.013 334.739 107.728 333.066C106.442 331.392 107.585 326.441 108.442 322.975C109.299 319.51 110.629 315.759 111.502 307.565C111.751 305.229 111.118 302.021 110.55 300.055Z" fill="#FAB17E"/>
<path d="M93.6385 321.961C94.0526 323.89 94.0027 325.316 93.2826 326.031C92.5625 326.745 89.8422 332.056 89.8422 332.056L88.9951 331.907L90.9571 327.048L93.6385 321.961Z" fill="#2C3282"/>
<path d="M88.1788 332.176C87.2753 332.455 84.6334 331.118 82.9968 329.547C81.3609 327.976 82.3286 327.208 83.8323 327.472C83.9172 327.487 84.0008 327.48 84.0844 327.458C84.8356 329.395 87.3051 330.849 88.1023 328.802C88.8917 326.773 92.2764 322.736 93.6394 321.871C93.6362 321.903 93.6349 321.933 93.6381 321.961C93.793 323.256 94.5021 324.459 92.1429 325.923C89.7829 327.388 89.0823 331.897 88.1788 332.176Z" fill="#2C3282"/>
<path d="M100.7 343.585C101.356 343.816 102.166 344.071 102.87 344.098C104.299 344.153 104.728 342.338 104.823 339.872C104.906 337.718 106.26 334.327 107.648 332.952C107.674 332.991 107.7 333.03 107.728 333.065C109.013 334.739 108.974 336.95 106.938 338.311C104.565 339.898 107.167 345.833 105.452 346.084C103.529 346.367 100.397 346.867 99.3449 345.337C98.3506 343.89 99.5847 343.775 100.7 343.585Z" fill="#2C3282"/>
<path d="M107.406 332.452C107.406 332.452 109.489 334.966 109.299 336.011C109.109 337.056 108.466 339.697 108.359 341.733C108.251 343.768 108.156 346.105 108.156 346.105C108.156 346.105 107.406 346.105 107.347 345.859C107.287 345.613 106.87 337.585 106.87 337.585L107.406 332.452Z" fill="#2C3282"/>
<path d="M138.45 292.185C138.45 292.185 141.14 305.371 137.742 309.026C134.343 312.681 120.231 309.394 116.908 309.174C114.658 309.026 112.479 312.199 112.479 312.199C112.479 312.199 114.051 304.842 112.979 298.9C111.908 292.958 110.179 292.559 110.179 292.559L112.479 292.185H138.45Z" fill="#2C3282"/>
<path d="M139.06 288.737C137.909 291.556 140.298 296.425 139.461 297.828C138.624 299.23 133.832 298.024 130.692 295.104C127.552 292.184 121.608 291.543 121.608 291.543L139.06 288.737Z" fill="#83C8DA"/>
<path d="M131.202 257.583C131.493 257.233 131.96 256.424 132.015 254.798C132.06 253.465 131.641 252.007 130.836 250.694C129.82 249.036 128.237 247.629 126.135 246.509C126.037 246.457 125.921 246.507 125.876 246.619C125.831 246.733 125.874 246.867 125.972 246.919C128.011 248.005 129.541 249.363 130.517 250.955C131.273 252.187 131.666 253.546 131.624 254.78C131.555 256.842 130.779 257.416 130.771 257.421C130.68 257.486 130.65 257.624 130.705 257.731C130.759 257.836 130.877 257.872 130.97 257.81C130.982 257.802 131.075 257.736 131.202 257.583Z" fill="#303D60"/>
<path d="M130.926 240.139C130.926 240.139 128.321 234.017 134.601 232.525C140.879 231.033 150.758 241.908 144.671 251.11C138.584 260.312 139.625 260.477 141.88 264.075C143.48 266.628 138.547 266.913 135.544 266.863C135.077 266.856 134.934 266.15 135.341 265.884C136.224 265.307 136.911 264.468 136.101 263.424C134.493 261.349 131.381 260.773 134.604 254.61C137.018 249.993 133.646 245.442 130.926 240.139Z" fill="#2C3282"/>
<path d="M130.288 238.004C130.288 238.004 134.601 240.254 134.601 242.02C134.601 242.02 134.893 238.004 130.288 238.004Z" fill="#406CAC"/>
<path d="M100.665 283.832C100.932 284.518 101.619 284.829 102.199 284.527C102.78 284.224 103.034 283.424 102.766 282.738C102.499 282.053 101.811 281.742 101.231 282.044C100.651 282.346 100.397 283.147 100.665 283.832Z" fill="white"/>
<path d="M284.969 398.991C284.838 400.412 286.816 400.758 289.108 400.872C291.4 400.986 290.707 401.455 293.848 402.024C296.988 402.593 298.247 401.734 298.474 401.309C298.677 400.933 297.216 400.344 295.66 399.679C295.464 399.596 295.269 399.51 295.072 399.424C293.321 398.654 291.764 399.017 290.399 397.56C289.106 396.181 287.878 391.765 287.878 391.765L283.61 390.854C283.61 390.854 284.808 394.828 285.224 396.525C285.469 397.523 285.682 396.706 285.362 397.555C285.189 398.017 285.014 398.49 284.969 398.991Z" fill="#FAB17E"/>
<path d="M289.437 392.55C289.437 392.55 289.543 392.655 288.364 392.788C287.266 392.906 283.61 392.803 283.61 392.803C283.61 392.803 273.836 373.445 272.966 369.016C272.104 364.594 271.016 361.901 269.048 361.798C267.073 361.695 242.465 364.791 238.744 358.232C235.022 351.68 238.103 345.187 238.103 345.187L242.472 348.386C242.472 348.386 247.595 347.995 253.895 347.811C259.762 347.642 272.739 347.076 272.739 347.076C274.721 347.364 276.047 348.418 276.956 349.334C281.407 353.82 289.437 392.55 289.437 392.55Z" fill="#2C3282"/>
<path d="M273.852 357.708L268.959 351.024L252.983 348.249L254.418 347.09C260.285 346.92 264.235 348.382 268.958 349.031C270.599 349.181 271.598 350.109 271.966 351.714L273.852 357.708Z" fill="#12294B"/>
<path d="M268.958 351.02L273.852 357.711L277.633 371.643L278.175 381.639L268.958 351.02Z" fill="#12294B"/>
<path d="M289.069 401.815C291.361 401.929 290.626 402.741 293.809 402.967C296.012 403.123 297.508 402.389 297.9 402.109C299.752 400.786 298.335 400.141 296.874 399.612C296.016 399.302 295.113 399.137 294.201 399.119C294.201 399.119 293.389 399.924 290.84 399.23C288.763 398.666 286.754 397.425 285.323 397.024C285.15 397.486 284.68 398.852 284.635 399.353C284.504 400.774 286.778 401.7 289.069 401.815Z" fill="#2B3074"/>
<path d="M275.211 399.151C275.08 400.572 277.059 400.917 279.35 401.031C281.642 401.146 280.949 401.615 284.09 402.184C287.23 402.753 288.489 401.893 288.716 401.469C288.919 401.092 287.459 400.504 285.902 399.838C285.707 399.755 285.511 399.67 285.315 399.584C283.563 398.813 282.006 399.176 280.641 397.72C279.348 396.341 278.12 391.925 278.12 391.925L273.852 391.014C273.852 391.014 275.05 394.988 275.467 396.685C275.711 397.683 275.924 396.866 275.604 397.715C275.431 398.177 275.257 398.649 275.211 399.151Z" fill="#FAB17E"/>
<path d="M279.351 402.505C281.643 402.62 280.907 403.432 284.09 403.658C286.293 403.814 287.79 403.08 288.181 402.8C290.593 401.076 287.459 400.503 285.903 399.838L285.879 399.865C285.879 399.865 283.671 400.615 281.121 399.921C279.044 399.357 277.036 398.116 275.604 397.715C275.431 398.177 274.961 399.543 274.916 400.044C274.785 401.465 277.059 402.391 279.351 402.505Z" fill="#2C3282"/>
<path d="M238.011 345.746C238.011 345.746 263.203 346.938 268.407 350.513C273.611 354.087 280.094 394.041 280.094 394.041L278.91 394.123C277.809 394.199 274.396 392.845 274.396 392.845C274.396 392.845 266.044 375.898 265.351 371.443C264.656 366.989 262.783 362.589 260.814 362.406C258.846 362.224 234.14 364.36 230.677 357.664C227.213 350.968 238.011 345.746 238.011 345.746Z" fill="#2C3282"/>
<path d="M230.303 311.562C230.314 311.547 230.326 311.534 230.338 311.519C230.557 311.273 230.818 311.047 231.106 310.846L231.117 310.839H231.119C233.368 309.267 237.388 308.931 237.388 308.931V308.934C237.388 308.933 237.388 308.932 237.389 308.931C237.389 308.931 237.828 308.89 238.524 308.858C239.051 307.491 239.651 305.469 239.837 302.516L240.235 302.623L246.935 304.42C246.935 304.42 246.638 306.546 246.499 308.559C246.469 309 246.446 309.435 246.436 309.841C246.629 309.912 246.81 309.982 246.968 310.048V310.048C246.968 310.048 250.799 310.5 251.705 311.474C252.612 312.45 254.424 318.938 254.881 320.088L229.085 320.51C229.085 320.51 228.438 313.769 230.303 311.562Z" fill="#FAB17E"/>
<path d="M261.923 337.871C262.316 338.302 262.245 338.985 261.765 339.316C261.267 339.658 260.7 340.106 260.421 340.529C260.254 340.783 260.847 339.946 260.652 340.216C259.834 341.351 258.798 342.531 257.726 342.947C257.325 343.106 256.92 343.153 256.515 343.058C255.912 342.912 254.947 342.229 253.974 341.308C253.184 340.557 252.39 339.648 251.786 338.747C251.548 338.39 251.342 338.032 251.175 337.687C251.139 337.96 251.108 338.222 251.08 338.473V338.477C250.936 339.827 250.917 340.879 251.135 341.363C251.417 341.974 251.029 343.417 252.057 344.021C254.102 345.212 257.948 345.528 257.083 346.564C256.352 347.434 254.081 347.7 251.647 348.101C249.737 348.414 247.729 348.811 246.3 349.653C246.244 349.685 246.188 349.717 246.128 349.752C242.698 351.773 232.403 357.991 229.35 357.701C228.147 357.586 228.37 355.287 229.1 352.234C230.248 347.418 232.653 340.728 232.653 337.822C232.653 336.234 229.088 320.507 229.088 320.507C229.088 320.507 228.437 313.77 230.303 311.562C230.303 311.562 232.237 309.255 235.902 309.137C236.021 309.204 239.267 310.519 243.817 310.764C248.402 311.01 249.035 310.404 249.035 310.404C255.296 311.174 252.829 314.104 254.883 320.087C254.883 320.087 258.584 334.689 259.524 335.444C260.108 335.911 261.187 337.063 261.923 337.871Z" fill="#FF6D2E"/>
<path d="M246.935 304.42C246.935 304.42 246.638 306.546 246.499 308.559C242.707 308.198 240.93 304.599 240.235 302.622L246.935 304.42Z" fill="#F4A26A"/>
<path d="M248.7 305.092C248.7 305.092 251.721 312.091 247.391 317.226L246.436 309.841L246.71 306.257C246.71 306.257 247.906 305.312 248.7 305.092Z" fill="#2C3282"/>
<path d="M250.354 303.754C249.439 305.698 247.251 306.724 245.166 306.207C243.145 305.706 240.614 304.273 239.445 300.359C237.837 294.982 238.897 290.93 244.659 290.981C250.42 291.033 251.395 293.243 251.727 295.141C251.965 296.501 251.756 300.782 250.354 303.754Z" fill="#FAB17E"/>
<path d="M261.448 339.543C261.281 339.797 260.846 339.946 260.652 340.216C259.834 341.351 258.798 342.53 257.726 342.947C257.325 343.106 256.92 343.154 256.515 343.059C255.911 342.911 254.947 342.229 253.974 341.307C253.184 340.557 252.39 339.648 251.787 338.747C251.548 338.389 251.342 338.032 251.175 337.687C251.139 337.961 251.107 338.223 251.079 338.473L250.395 336.476C250.395 336.476 252.134 329.041 252.354 324.7C252.577 320.315 251.967 319.77 252.354 324.7C252.918 331.882 258.59 337.248 261.448 339.543Z" fill="#EC5927"/>
<path d="M235.972 318.834C235.972 318.834 222.882 343.108 246.128 349.753C246.189 349.719 246.245 349.684 246.3 349.651C247.729 348.813 249.738 348.416 251.648 348.099C254.082 347.7 256.354 347.433 257.081 346.563C257.947 345.527 254.978 345.212 252.932 344.021C251.902 343.419 249.467 342.362 248.807 342.226C237.951 339.995 234.751 320.786 235.972 318.834Z" fill="#EC5927"/>
<path d="M246.2 292.169C246.2 292.169 246.317 298.704 251.075 299.834C251.075 299.834 253.047 299.017 251.402 296.868C249.757 294.72 246.2 292.169 246.2 292.169Z" fill="#2C3282"/>
<path d="M245.432 290.088C245.432 290.088 238.178 287.751 235.509 296.18C232.841 304.609 235.926 304.8 234.099 308.264C230.877 314.373 240.443 317.226 240.443 317.226L240.773 314.98C240.924 313.945 240.867 312.887 240.594 311.877C239.979 309.592 239.322 307.256 240.157 305.106C240.861 303.295 241.425 301.433 240.946 301.064C240.09 300.405 239.285 298.144 240.644 298.244C242.004 298.346 241.652 299.554 241.652 299.554C241.652 299.554 243.048 298.916 243.585 297.406C243.925 296.448 245.982 294.166 246.183 293.16C246.384 292.152 248.189 294.604 249.405 296.029C251.08 297.993 251.253 301.099 251.253 301.099C251.253 301.099 253.886 297.922 253.03 295.102C252.174 292.283 250.06 288.477 245.432 290.088Z" fill="#2C3282"/>
<path d="M244.682 339.319C244.682 339.319 248.452 338.459 249.644 338.823C250.836 339.187 253.474 341.404 252.833 341.408C252.193 341.413 249.645 340.212 249.248 340.444C248.851 340.676 247.065 341.603 245.906 341.139C244.748 340.676 244.682 339.319 244.682 339.319Z" fill="#FAB17E"/>
<path d="M229.538 312.912C229.538 312.912 227.194 322.576 226.748 327.95C226.426 331.841 225.971 335.08 225.575 337.436C225.193 339.705 226.938 341.768 229.239 341.759C230.333 341.754 231.648 341.742 233.204 341.715C239.288 341.614 246.422 341.715 246.422 341.715L245.757 338.583C243.262 337.224 232.766 334.738 233.028 333.689C233.289 332.639 236.909 318.048 236.909 318.048L229.538 312.912Z" fill="#FF6D2E"/>
<path d="M278.917 327.02L258.772 329.625L252.122 350.336L274.312 347.466L280.331 328.719C280.625 327.805 279.868 326.897 278.917 327.02Z" fill="#333332"/>
<path d="M253.358 350.458L237.962 346.133C237.21 346.23 236.521 345.699 236.424 344.947C236.327 344.195 236.858 343.506 237.61 343.409L252.136 347.192L257.628 330.488C257.856 329.766 258.628 329.365 259.351 329.594C260.074 329.822 260.474 330.594 260.245 331.317L254.491 349.51C254.329 350.02 253.887 350.389 253.358 350.458Z" fill="#333332"/>
<path d="M270.17 339.428C269.743 340.377 268.645 340.806 267.718 340.389C266.791 339.971 266.386 338.864 266.814 337.916C267.241 336.968 268.338 336.538 269.265 336.956C270.192 337.373 270.597 338.48 270.17 339.428Z" fill="white"/>
<path d="M237.61 343.409L253.718 342.761L252.137 347.192L237.61 343.409Z" fill="#333332"/>
<path d="M413.071 289.058L413.907 287.403L418.894 287.584L419.006 289.058L416.663 293.122L412.446 289.87L413.071 289.058Z" fill="#FAB17E"/>
<path d="M416.113 287.569L416.322 291.41C416.322 291.41 417.618 290.675 419.131 289.317L418.924 287.143L416.113 287.569Z" fill="#F9A66D"/>
<path d="M436.395 289.058L437.233 287.403L441.809 286.717L442.33 289.058L439.988 293.122L435.771 289.87L436.395 289.058Z" fill="#FAB17E"/>
<path d="M439.935 287.463L439.52 291.09C439.52 291.09 440.815 290.355 442.329 288.998L441.913 287.143L439.935 287.463Z" fill="#F9A66D"/>
<path d="M436.095 289.001C436.095 289.001 437.559 288.972 439.263 290.265C440.278 291.035 441.811 289.447 442.28 289.037C442.376 288.954 442.506 289.029 442.522 289.177L443.112 294.545H428.761C428.452 294.545 428.159 294.408 427.961 294.172C427.518 293.644 427.7 292.839 428.326 292.553L436.095 289.001Z" fill="#2C3282"/>
<path d="M412.757 289.001C412.757 289.001 414.222 288.972 415.926 290.265C416.941 291.035 418.474 289.447 418.943 289.037C419.039 288.954 419.169 289.029 419.185 289.177L419.775 294.545H405.423C405.115 294.545 404.822 294.408 404.624 294.172C404.181 293.644 404.362 292.839 404.989 292.553L412.757 289.001Z" fill="#2C3282"/>
<path d="M386.892 221.244L388.184 223.734L389.568 222.979L406.549 213.74L416.299 201.666L416.749 201.11L412.047 192.957L401.019 209.157L386.892 221.244Z" fill="#FAB17E"/>
<path d="M389.131 223.012L389.568 222.979L406.55 213.74L416.299 201.666L413.133 201.448L404.927 212.389L389.131 223.012Z" fill="#ED975E"/>
<path d="M427.288 176.204L427.627 176.021L427.972 175.784C427.789 175.838 427.525 175.96 427.288 176.204Z" fill="#2D4873"/>
<path d="M431.102 166.853C431.082 167.11 431.055 167.381 431.008 167.673C430.859 168.757 430.553 170.071 430.059 171.691L430.045 171.739L430.018 171.752L427.925 172.884L427.856 172.768L427.796 172.64L427.965 172.552L426.657 168.323L426.427 167.585L426.101 166.541C425.912 165.938 425.485 165.437 424.929 165.172C424.272 164.867 423.432 164.637 422.883 165.064C421.947 165.782 420.87 166.487 420.03 166.148C419.657 166.006 419.325 165.633 419.081 165.294C418.898 165.186 418.736 165.05 418.587 164.895C418.315 164.603 418.105 164.237 417.956 163.844C417.773 163.566 417.611 163.261 417.475 162.943C417.624 162.299 417.828 161.669 418.099 161.208C418.099 161.208 418.587 160.334 419.081 160.117C420.105 159.663 421.026 159.033 422.035 158.653C422.361 158.525 422.706 158.423 423.065 158.369H423.073C423.526 158.484 424.001 158.47 424.469 158.335C424.671 158.267 424.895 158.24 425.132 158.24C425.566 158.254 426.048 158.464 426.474 158.796C426.935 159.155 427.504 159.351 428.094 159.311C428.216 159.304 428.331 159.297 428.446 159.311C428.636 159.426 428.819 159.555 428.995 159.704V159.71C429.043 159.751 429.693 160.341 430.214 160.767C430.222 160.767 430.228 160.774 430.235 160.781C430.275 160.822 430.459 161.039 430.696 161.412C430.743 162.631 430.872 163.838 431.062 165.043C431.143 165.558 431.157 166.155 431.102 166.853Z" fill="#2C3282"/>
<path d="M412.1 286.647C412.126 287.21 412.583 287.647 413.147 287.66L419.121 287.767C419.67 287.773 420.134 287.376 420.2 286.833C421.028 280.091 426.274 238.636 433.34 224.701L426.307 224.489L413.147 224.085C413.147 224.085 412.756 228.755 412.312 234.451C411.775 241.352 411.159 249.763 411.06 253.22C410.901 258.817 411.881 281.594 412.1 286.647Z" fill="#2C3282"/>
<path d="M412.312 234.451L423.685 262.791L426.306 224.489L413.146 224.086C413.146 224.086 412.756 228.755 412.312 234.451Z" fill="#12294B"/>
<path d="M418.388 224.087C418.388 224.087 417.543 243.114 422.024 256.576C425.251 266.27 431.973 283.869 433.398 287.585C433.559 288.006 433.968 288.278 434.418 288.267L441.242 288.097C441.923 288.08 442.413 287.437 442.249 286.776L434.838 256.899C434.426 255.276 434.167 253.616 434.061 251.942C433.664 245.62 434.963 232.847 435.506 224.662L418.388 224.087Z" fill="#2C3282"/>
<path d="M424.491 186.082C427.732 190.79 418.603 202.425 414.938 203.998L408.159 195.89C409.925 193.647 412.023 190.755 415.377 187.244C415.377 187.244 421.249 181.375 424.491 186.082Z" fill="#07A6AA"/>
<path d="M430.38 184.411C430.38 184.411 442.71 187.379 440.313 193.683C435.346 206.756 436.448 224.799 436.448 224.799L411.48 224.004C414.455 214.858 416.18 207.865 414.561 198.385L414.782 196.534C414.883 194.429 415.45 192.27 416.299 190.356C417.155 188.425 419.327 184.509 420.02 184.422L428.856 183.298L430.38 184.411Z" fill="#FFEF92"/>
<path d="M411.481 224.004L436.448 224.799C436.448 224.799 435.015 213.366 440.314 193.683C441.274 190.114 438.529 185.894 433.339 188.462C436.204 188.718 441.57 189.558 437.358 201.162C432.517 214.496 426.082 223.131 411.481 224.004Z" fill="#FEE255"/>
<path d="M419.245 213.178C419.189 213.613 419.258 213.981 419.399 214.001C419.541 214.02 419.702 213.682 419.758 213.248C419.814 212.813 419.746 212.445 419.604 212.426C419.462 212.406 419.302 212.743 419.245 213.178Z" fill="white"/>
<path d="M428.063 174.956L428.003 182.365L422.424 187.378L421.391 184.343L421.935 178.722L427.586 173.606C427.586 173.606 428.455 174.224 428.564 174.449C428.673 174.674 428.063 174.956 428.063 174.956Z" fill="#FAB17E"/>
<path d="M427.586 173.606L421.935 178.722L421.536 183.236C421.536 183.236 426.666 180.653 426.844 176.413L427.586 173.606Z" fill="#ED975E"/>
<path d="M428.005 182.138L429.289 182.737C430.129 183.129 430.281 184.258 429.574 184.858L423.387 190.114L422.043 187.378L428.005 182.138Z" fill="#7DCFD9"/>
<path d="M421.536 183.236C421.401 183.283 420.021 184.422 420.021 184.422V188.949L422.262 187.047L421.536 183.236Z" fill="#7DCFD9"/>
<path d="M428.135 171.71C428.203 171.89 428.425 171.943 428.56 171.81C429.02 171.358 429.936 170.739 430.265 172.537C430.711 174.98 428.162 174.56 427.959 174.889C427.547 175.556 426.226 177.796 424.257 178.666C423.057 179.196 418.665 179.194 418.665 179.194C418.665 179.194 418.071 177.624 418.621 164.168C418.621 164.168 419.221 165.327 420.084 165.626C420.948 165.924 422.332 164.727 423.315 164.452C424.114 164.229 425.662 163.643 426.608 166.422C427.043 167.698 427.734 170.652 428.135 171.71Z" fill="#FAB17E"/>
<path d="M428.546 198.097L428.547 196.533C428.547 196.533 423.825 203.495 422.308 208.956C421.956 210.222 420.803 209.63 419.501 209.072C418.199 208.514 416.749 207.989 416.749 207.989C416.749 207.989 421.332 211.301 422.043 211.719C425.277 213.621 430.08 212.16 428.546 198.097Z" fill="#FEE255"/>
<path d="M420.748 216.262L415.192 198.826C414.884 197.86 414.186 197.08 413.278 196.688L401.901 191.773C401.564 191.628 401.218 191.962 401.336 192.32L406.95 209.401C407.252 210.321 407.909 211.069 408.765 211.469L420.171 216.799C420.508 216.956 420.864 216.625 420.748 216.262Z" fill="#333332"/>
<path d="M404.953 202.512C404.967 202.708 406.038 203.912 406.388 204.234C406.667 204.486 409.117 206.977 412.203 210.099C415.885 213.822 420.461 218.441 423.338 221.212C424.766 222.591 427.054 222.248 428.061 220.519L434.976 208.93L437.355 204.934L430.475 198.384C430.412 198.483 425.454 206.24 424.397 210.166C424.047 211.461 421.868 211.141 420.818 210.498L412.777 205.542C412.777 205.542 412.791 204.136 412.609 203.604C412.273 202.597 410.664 201.239 410.664 201.239L411.042 202.406C411.167 202.77 411.895 204.003 411.245 204.08L406.143 200.294C406.143 200.294 404.715 199.832 404.953 202.512Z" fill="#FBB88A"/>
<path d="M430.689 191.907C430.689 191.907 432.528 186.414 437.754 187.986C443.37 189.675 438.669 207.645 436.463 210.08L426.033 202.019L430.689 191.907Z" fill="#13B4C0"/>
<path d="M411.481 209.368L412.482 210.305C415.857 213.993 420.74 218.647 423.616 221.418C425.044 222.797 427.333 222.454 428.341 220.725L435.255 209.136L432.624 207.099C432.624 207.099 426.563 219.087 425.282 219.172C424.023 219.249 411.845 209.655 411.481 209.368Z" fill="#ED975E"/>
<path d="M435.641 187.702C435.641 187.702 441.343 192.576 432.341 206.893L436.813 210.224C436.771 210.306 446.021 187.343 435.641 187.702Z" fill="#07A6AA"/>
<path d="M387.338 220.855L380.342 224.087L378.912 226.108C378.72 226.308 378.878 226.636 379.153 226.611C380.268 226.508 382.373 226.188 384.014 225.2C386.355 223.79 387.391 223.339 386.652 224.626C385.912 225.913 386.361 227.318 386.361 227.318C386.361 227.318 388.341 226.081 389.128 223.016L387.338 220.855Z" fill="#FAB17E"/>
<path d="M431.204 167.611C431.184 167.659 431.15 167.692 431.103 167.692C431.075 167.699 431.042 167.692 431.008 167.672C431.001 167.666 431.001 167.666 430.994 167.659H430.987C430.493 167.157 429.564 167.178 428.947 166.812C428.894 166.778 428.833 166.791 428.785 166.832C428.602 167.035 428.053 167.584 427.105 168.092C427.037 168.133 426.969 168.167 426.901 168.201C426.82 168.241 426.739 168.282 426.658 168.323C426.583 168.357 426.508 168.39 426.427 168.425C425.363 168.892 423.94 169.251 422.144 169.184H422.131C422.016 169.17 420.003 168.912 418.492 168.553C418.485 168.553 418.479 168.553 418.471 168.547C418.011 168.438 417.604 168.323 417.306 168.201C417.306 168.201 417.224 168.174 417.089 168.14C416.316 167.937 415.496 168.004 414.765 168.309C414.304 168.499 413.85 168.682 413.566 168.79C413.558 168.797 413.552 168.797 413.545 168.804L413.288 168.967C413.288 168.967 413.138 169.075 413.03 168.987C412.996 168.96 412.983 168.919 412.983 168.886C412.989 168.804 413.023 168.648 413.227 168.479C413.233 168.479 413.24 168.472 413.24 168.472L416.527 166.473C416.689 166.378 416.832 166.25 416.947 166.1C417.001 166.026 417.049 165.951 417.055 165.89C417.055 165.883 417.055 165.877 417.062 165.87C417.069 165.762 417.13 164.671 417.353 163.498C417.387 163.315 417.428 163.125 417.475 162.943C417.624 162.298 417.828 161.668 418.099 161.208C418.099 161.208 418.587 160.333 419.081 160.117C420.105 159.662 421.026 159.032 422.036 158.653C422.361 158.524 422.706 158.423 423.066 158.368H423.073C423.344 158.321 423.628 158.301 423.92 158.307C423.981 158.314 424.028 158.273 424.049 158.226C424.103 158.07 424.285 157.779 424.869 157.82C424.869 157.82 425.336 157.793 425.451 158.138C425.471 158.179 425.505 158.213 425.553 158.219C425.885 158.281 427.254 158.552 428.446 159.31C428.636 159.425 428.819 159.554 428.995 159.703V159.71C429.043 159.751 429.693 160.34 430.215 160.767C430.222 160.767 430.228 160.774 430.235 160.78C430.276 160.821 430.459 161.038 430.696 161.411C431.34 162.455 432.322 164.691 431.204 167.611Z" fill="#FF6D2E"/>
<path d="M224.284 379.806C230.857 378.809 233.09 379.123 237.113 386.61C241.135 394.096 246.49 407.575 249.569 409.316C254.206 411.937 255.742 418.365 257.646 418.076C259.55 417.787 260.775 418.629 258.704 420.35C256.632 422.072 253.287 423.538 252.143 423.233C250.998 422.927 250.111 417.984 247.123 416.379C244.135 414.774 245.033 413.455 245.229 412.036C245.425 410.616 236.507 404.08 229.784 395.951C225.676 390.983 223.561 387.704 223.247 384.733C222.934 381.761 224.284 379.806 224.284 379.806Z" fill="#FAB17E"/>
<path d="M245.229 412.036C244.704 414.15 244.768 415.713 245.679 416.497C246.591 417.28 250.036 423.1 250.036 423.1L251.109 422.937L248.624 417.612L245.229 412.036Z" fill="#2C3282"/>
<path d="M252.142 423.233C253.286 423.538 256.632 422.072 258.704 420.35C260.776 418.629 259.55 417.787 257.647 418.076C257.539 418.092 257.433 418.086 257.327 418.06C254.43 414.473 252.366 410.743 249.569 409.316L245.228 411.937C245.232 411.972 245.233 412.005 245.229 412.036C245.033 413.455 244.135 414.774 247.123 416.379C250.111 417.984 250.998 422.927 252.142 423.233Z" fill="#2C3282"/>
<path d="M191.249 380.335C185.507 390.64 189.429 397.19 196.408 397.857C203.388 398.524 214.406 397.25 220.828 391.913C227.251 386.576 232.523 380.933 231.786 380.091C231.049 379.249 191.249 380.335 191.249 380.335Z" fill="#E3843E"/>
<path d="M223.813 388.023C224.989 384.495 226.345 381.789 228.969 381.74C231.728 381.688 233.426 383.124 233.544 387.638C233.684 393.014 233.874 410.817 233.625 418.733C233.437 424.725 235.183 426.644 235.036 432.891C234.925 437.595 239.941 435.219 238.004 437.658C236.671 439.336 232.705 438.788 230.269 438.478C228.098 438.202 231.392 431.697 228.388 429.957C225.81 428.465 225.759 426.042 227.388 424.207C229.016 422.373 227.568 416.946 226.483 413.147C225.398 409.348 223.714 405.237 222.608 396.255C222.293 393.694 223.095 390.178 223.813 388.023Z" fill="#FAB17E"/>
<path d="M236.287 435.738C235.456 435.992 235.073 432.216 235.033 431.324C234.819 426.645 234.819 426.645 233.879 423.273L227.795 422.777C227.762 422.82 227.423 424.168 227.388 424.208C225.759 426.042 225.81 428.465 228.388 429.957C231.393 431.696 228.098 438.202 230.269 438.478C232.705 438.788 236.671 439.336 238.003 437.659C239.262 436.073 237.7 435.947 236.287 435.738Z" fill="#2C3282"/>
<path d="M248.004 406.873L243.191 410.932L233.722 400.326L234.189 420.388H228.064C227.723 417.735 225.521 410.738 224.839 409.1C224.156 407.455 221.933 399.12 221.933 399.12C221.842 398.893 221.758 398.673 221.682 398.453C220.864 398.173 218.149 397.309 215.762 397.445C211.554 397.687 193.684 401.289 189.378 397.286C185.08 393.283 188.484 378.825 188.484 378.825H221.372L224.283 379.234C224.283 379.234 223.517 379.386 222.615 380.849L232.615 379.628C235.336 380.106 240.257 389.386 241.492 393.556C242.728 397.725 248.004 406.873 248.004 406.873Z" fill="#2C3282"/>
<path d="M239.566 406.873C238.04 403 236.891 397.04 235.453 391.18C233.406 382.846 230.948 380.91 229.589 380.021C227.946 379.61 226.939 379.403 224.284 379.806C224.284 379.806 230.493 380.543 231.409 384.36C233.316 392.303 233.721 400.326 233.721 400.326L236.891 403.876L239.566 406.873Z" fill="#12294B"/>
<path d="M227.795 423.535C227.795 423.535 225.157 426.291 225.398 427.437C225.639 428.583 226.452 431.477 226.589 433.708C226.725 435.939 226.845 438.5 226.845 438.5C226.845 438.5 227.795 438.5 227.87 438.231C227.946 437.961 228.473 429.162 228.473 429.162L227.795 423.535Z" fill="#2C3282"/>
<path d="M187.712 375.616C189.169 378.707 186.429 381.063 187.489 382.6C187.489 382.6 194.64 382.876 201.388 382.752C206.492 382.658 209.811 378.692 209.811 378.692L187.712 375.616Z" fill="#ECF3FB"/>
<path d="M210.545 325.037C213.14 330.226 210.992 336.202 205.888 338.313C200.75 340.439 195.133 339.231 192.538 334.042C189.943 328.852 191.87 322.63 196.843 320.143C201.815 317.656 207.95 319.847 210.545 325.037Z" fill="#2C3282"/>
<path d="M216.876 371.949L216.603 375.034L216.39 377.506L216.247 379.105C216.247 379.105 215.663 378.818 214.761 378.324C212.206 376.907 207.096 373.776 205.504 370.531L204.791 351.419L203.442 349.766L200.128 345.694L200.288 343.147L207.452 348.977C207.452 348.977 213.843 369.803 216.876 371.949Z" fill="white"/>
<path d="M218.127 376.626L216.391 377.506L214.761 378.324C212.206 376.907 207.096 373.776 205.504 370.531L204.791 351.419L203.442 349.766L203.487 348.977L207.84 354.086L209.497 366.614C209.597 367.371 209.936 368.076 210.463 368.627L216.603 375.034L218.127 376.626Z" fill="#ECF3FB"/>
<path d="M194.062 342.45C194.062 342.45 185.332 347.329 183.296 348.366C181.261 349.403 188.998 379.855 190.719 381.159C192.439 382.465 207.588 381.384 209.313 379.74C211.038 378.096 204.118 372.836 206.896 363.101C210.055 352.032 205.879 350.059 203.232 347.647C202.658 347.123 198.308 342.45 198.308 342.45H194.062Z" fill="white"/>
<path d="M190.719 381.16C192.44 382.464 203.28 382.494 207.894 381.058C208.415 380.896 210.779 379.954 210.835 379.068C210.278 378.964 208.067 379.229 207.17 379.023C204.049 378.306 202.33 374.44 202.33 374.44C202.33 374.44 200.612 373.822 196.767 372.194C192.923 370.565 194.506 365.635 194.415 363.464C194.325 361.294 190.616 354.193 183.651 348.81L183.012 349.097C182.515 354.046 189.127 379.952 190.719 381.16Z" fill="#ECF3FB"/>
<path d="M182.611 348.937C179.728 358.153 177.01 369.043 175.585 374.984C175.052 377.207 176.788 379.321 179.073 379.232C186.061 378.962 198.755 378.395 199.442 377.807C200.392 376.994 200.12 373.873 199.985 373.466C199.849 373.059 186.255 370.647 186.255 370.647C186.255 370.647 188.045 367.158 188.723 360.34C189.402 353.522 183.408 346.387 182.611 348.937Z" fill="white"/>
<path d="M199.42 373.58C204.908 374.606 206.257 375.866 209.249 376.347C212.64 376.894 212.237 377.644 209.718 377.644C207.199 377.644 200.87 377.742 198.698 377.259C196.525 376.776 199.42 373.58 199.42 373.58Z" fill="#FAB17E"/>
<path d="M197.26 330.765L193.872 343.145C193.872 343.145 197.868 348.358 199.442 347.564C201.016 346.77 200.291 344.024 200.291 343.145C200.291 342.266 202.745 333.196 202.745 333.196L197.26 330.765Z" fill="#FAB17E"/>
<path d="M200.409 343.777C200.335 343.484 200.291 343.264 200.291 343.145C200.291 342.266 202.745 333.196 202.745 333.196L197.26 330.765L196.139 334.862C197.118 339.094 198.885 341.913 200.409 343.777Z" fill="#ED975E"/>
<path d="M210.279 331.901C210.102 335.544 208.616 340.095 205.237 340.56C201.859 341.025 198.637 337.902 198.044 333.585C197.449 329.268 199.707 325.391 203.086 324.926C206.464 324.461 210.492 327.548 210.279 331.901Z" fill="#FAB17E"/>
<path d="M199.148 332.58C199.594 333.835 199.207 335.12 198.28 335.45C197.355 335.779 196.243 335.029 195.796 333.774C195.349 332.519 195.737 331.234 196.663 330.905C197.588 330.575 198.701 331.326 199.148 332.58Z" fill="#F0995A"/>
<path d="M198.643 333.669C198.597 333.662 198.571 333.662 198.571 333.662C198.591 333.616 198.604 333.57 198.624 333.519C198.63 333.57 198.637 333.616 198.643 333.669Z" fill="#2C3282"/>
<path d="M204.114 333.145C204.088 333.151 204.061 333.158 204.035 333.164C204.068 333.04 204.074 332.968 204.074 332.968C204.088 333.027 204.101 333.086 204.114 333.145Z" fill="#2C3282"/>
<path d="M237.38 358.469L216.531 361.165L209.648 382.6L232.614 379.631L238.844 360.228C239.148 359.282 238.365 358.342 237.38 358.469Z" fill="#333332"/>
<path d="M210.928 382.726L198.382 384.348C197.604 384.449 196.892 383.9 196.791 383.122C196.69 382.343 197.24 381.631 198.018 381.53L209.665 380.024L215.348 362.059C215.584 361.311 216.383 360.897 217.131 361.133C217.879 361.37 218.294 362.168 218.057 362.916L212.101 381.746C211.934 382.272 211.476 382.656 210.928 382.726Z" fill="#333332"/>
<path d="M186.386 334.435C186.386 334.435 186.517 334.442 186.733 334.442C186.622 334.461 186.504 334.455 186.386 334.435Z" fill="#2C3282"/>
<path d="M212.545 327.57C212.545 327.57 211.687 326.128 210.528 325.63C210.672 325.716 210.757 325.761 210.757 325.761C210.351 328.887 208.778 330.799 206.892 331.959C206.007 333.453 204.946 334.815 203.734 335.516C203.793 335.431 204.389 334.566 204.114 333.145C204.101 333.086 204.088 333.027 204.075 332.968C204.075 332.968 204.068 333.04 204.035 333.164C203.891 333.767 203.289 335.588 201.133 335.955C201.264 335.837 202.515 334.717 201.932 333.577C201.932 333.577 199.24 334.776 200.91 337.829C200.785 337.724 199.037 336.204 198.643 333.669C198.637 333.617 198.63 333.571 198.624 333.518C198.604 333.571 198.591 333.617 198.571 333.662C197.182 337.305 200.163 339.919 200.163 339.919C197.3 340.961 196.016 338.851 196.016 338.851C195.066 340.555 198.204 342.323 198.204 342.323C192.157 342.526 191.876 336.539 191.876 336.539C190.788 337.966 191.385 339.919 191.385 339.919C187.696 337.993 190.041 333.708 190.041 333.708C189.347 334.422 187.506 334.462 186.733 334.442C188.974 334.252 189.563 328.52 189.563 328.52C187.617 329.181 188.03 331.69 188.063 331.906C185.219 328.205 189.294 326.41 189.294 326.41C186.025 326.967 186.903 322.401 186.903 322.401C186.903 322.401 186.91 327.295 191.057 322.401C195.204 317.506 200.157 319.118 200.157 319.118C200.157 319.118 201.598 316.281 204.455 317.71C207.193 319.079 209.014 317.88 209.165 317.782C209.152 317.86 208.818 319.138 207.101 319.57C207.101 319.57 210.03 322.335 213.017 321.45C213.017 321.45 211.668 323.56 209.394 322.787C210.265 323.141 213.397 324.608 212.545 327.57Z" fill="#2C3282"/>
<path d="M228.328 371.312C227.886 372.293 226.75 372.737 225.791 372.305C224.831 371.873 224.412 370.728 224.855 369.746C225.297 368.765 226.432 368.32 227.391 368.753C228.351 369.184 228.77 370.33 228.328 371.312Z" fill="white"/>
<path d="M338.272 176.501C343.961 171.087 353.653 174.529 353.448 182.774C353.243 191.019 356.433 189.709 359.808 192.995C366.964 199.962 357.854 203.218 350.642 205.045C347.295 205.893 335.206 199.934 334.661 188.102C334.299 180.248 336.608 178.085 338.272 176.501Z" fill="#2C3282"/>
<path d="M340.924 223.774C339.1 239.089 335.787 250.409 335.418 257.669C335.049 264.929 333.572 293.515 333.572 293.515C333.572 293.515 337.633 293.231 338.002 292.615C338.371 292 345.631 275.881 345.262 265.914C344.893 255.946 352.513 240.791 352.513 240.791L350.676 225.922L340.924 223.774Z" fill="#2C3282"/>
<path d="M342.675 230.441L339.823 231.635C339.048 236.491 338.188 240.857 337.433 244.729C341.971 247.663 344.316 257.439 345.32 263.415C345.832 256.728 348.987 248.647 350.945 244.179L342.675 230.441Z" fill="#12294B"/>
<path d="M355.845 222.23C355.845 222.23 361.991 230.07 361.798 238.966C361.505 252.505 360.779 256.944 362.062 270.569C362.591 276.18 360.383 294.253 360.383 294.253C360.383 294.253 357.633 294.469 356.157 293.734C356.28 292.401 354.38 270.72 350.679 260.754C348.888 255.928 346.37 242.411 345.016 234.659C343.663 226.906 343.416 225.307 343.909 225.307C344.401 225.307 355.845 222.23 355.845 222.23Z" fill="#2C3282"/>
<path d="M320.828 200.455L319.292 202.044C319.292 202.044 317.05 200.021 316.67 199.309C316.569 199.128 316.505 198.598 316.467 197.913L316.547 197.897C316.542 197.854 316.547 197.812 316.558 197.774C316.943 196.297 316.012 194.072 316.724 194.072C317.221 194.072 317.965 195.704 318.329 197.539L318.671 197.469L317.706 192.453C317.626 192.035 318.13 191.758 318.437 192.053C319.421 193.001 320.465 194.59 320.662 195.147C321.101 196.399 320.828 200.455 320.828 200.455Z" fill="#FAB17E"/>
<path d="M343.674 196.276C335.034 205.576 330.585 210.714 329.928 210.714C327.878 207.094 321.065 199.437 321.065 199.437L318.161 201.304C318.161 201.304 324.873 218.842 329.139 219.022C333.405 219.204 342.076 212.975 342.186 212.26C342.296 211.544 343.674 196.276 343.674 196.276Z" fill="#FED7B4"/>
<path d="M333.034 218.114C337.261 216.393 342.104 212.794 342.186 212.259C342.296 211.545 343.95 195.984 343.95 195.984C342.065 198.012 338.182 202.211 336.755 203.784C335.207 209.548 335.644 214.94 333.034 218.114Z" fill="#F8C498"/>
<path d="M350.824 191.378C350.824 191.378 359.093 195.522 360.897 202.859C362.702 210.195 357.362 219.259 356.706 224.096C356.049 228.933 340.955 229.784 340.955 224.606C340.955 219.643 338.392 209.334 338.605 206.65C339.106 200.353 347.093 192.411 347.093 192.411L350.824 191.378Z" fill="#FED7B4"/>
<path d="M348.422 181.873L351.972 192.819C351.972 192.819 351.338 193.787 348.741 196.773C347.359 198.362 344.769 197.006 345.296 194.968C345.611 193.746 345.869 192.994 345.869 192.994L343.184 182.658L348.422 181.873Z" fill="#F0995A"/>
<path d="M350.077 186.979L348.421 181.873L343.184 182.658L345.869 192.994C348.399 191.117 349.301 189.855 350.077 186.979Z" fill="#ED975E"/>
<path d="M346.466 184.344C345.509 187.827 344.506 189.361 341.801 189.745C339.231 190.109 335.968 185.205 336.926 181.722C337.883 178.238 340.795 176.002 343.429 176.726C346.064 177.45 347.423 180.861 346.466 184.344Z" fill="#FAB17E"/>
<path d="M340.431 219.206C341.581 226.49 338.606 236.612 338.606 236.612C338.606 236.612 340.331 237.931 347.961 237.193C355.591 236.455 358.345 234.052 359.493 233.84C360.642 233.627 361.798 239.774 361.798 238.965C361.798 236.428 362.451 232.285 360.97 228.435C358.345 221.61 358.859 218.715 359.84 214.58C361.585 207.227 340.431 219.206 340.431 219.206Z" fill="#FED7B4"/>
<path d="M333.757 289.93C334.444 292.722 333.088 294.936 331.272 296.55C329.795 297.863 325.256 298.421 325.474 299.077C325.693 299.733 331.053 299.941 332.858 299.668C334.663 299.394 335.155 298.519 337.402 298.52C338.874 298.521 339.148 297.323 338.491 295.843C337.835 294.363 337.605 293.545 338.198 292.217C338.792 290.89 333.757 289.93 333.757 289.93Z" fill="#2C3282"/>
<path d="M360.541 289.93C360.431 292.828 360.095 294.988 360.806 296.332C363.552 298.629 365.834 301.238 364.962 301.418C360.806 302.276 359.22 299.785 356.868 299.077C353.982 298.208 357.141 294.582 356.011 289.93C355.382 287.344 360.368 287.964 360.368 287.964L360.541 289.93Z" fill="#2C3282"/>
<path d="M361.59 230.812C361.424 229.903 361.219 229.084 360.97 228.436C358.345 221.611 358.859 218.715 359.84 214.58C359.917 214.254 359.948 213.968 359.939 213.717C360.16 212.98 360.367 212.232 360.548 211.481L359.657 203.437L353.233 195.808C348.418 202.863 351.667 211.641 350.945 216.481C350.223 221.321 342.155 227.493 342.155 227.493L342.417 229.211C342.777 231.566 344.961 233.203 347.322 232.875C350.647 232.413 355.009 231.486 356.95 229.685C358.828 227.942 360.491 229.291 361.59 230.812Z" fill="#F8C498"/>
<path d="M344.042 227.216C344.042 227.216 340.48 228.212 340.054 228.435C339.628 228.658 339.393 229.835 339.393 229.835C339.393 229.835 337.355 231.605 338.136 232.233C338.917 232.86 340.311 234.446 342.155 233.708C343.287 233.255 344.164 229.096 344.906 229.063C345.648 229.03 344.042 227.216 344.042 227.216Z" fill="#FAB17E"/>
<path d="M354.128 194.878C357.94 194.986 361.396 201.851 362.6 207.807C363.804 213.763 365.072 222.23 365.072 222.23C365.072 222.23 358.755 227.216 352.514 228.673C347.068 229.944 344.289 230.441 344.289 230.441L343.184 227.333L356.212 219.681C356.212 219.681 351.421 210.656 350.945 203.848C350.469 197.038 351.231 194.796 354.128 194.878Z" fill="#FED7B4"/>
<path d="M316.558 197.774C316.943 196.298 316.012 194.072 316.724 194.072C317.222 194.072 317.965 195.703 318.329 197.539L316.547 197.897C316.542 197.854 316.547 197.812 316.558 197.774Z" fill="#F4DC95"/>
<path d="M318.543 199.962C318.543 199.962 316.564 198.705 316.547 197.897C316.542 197.855 316.547 197.811 316.558 197.774C316.943 196.297 316.012 194.071 316.724 194.071C317.221 194.071 317.965 195.703 318.329 197.538C318.495 198.347 318.581 199.198 318.543 199.962Z" fill="#FAB17E"/>
<path d="M337.624 177.814C337.835 184.651 345.82 184.126 348.008 183.705C350.196 183.283 345.345 198.128 349.512 198.985C352.572 199.613 351.883 194.827 355.282 195.147C356.786 195.288 358.297 197.613 358.297 197.613C358.297 197.613 358.071 196.181 356.923 195.147C355.774 194.112 352.763 187.768 351.971 183.229C351.18 178.689 345.82 175.753 344.234 175.662C342.648 175.571 338.765 177.377 338.765 177.377L337.624 177.814Z" fill="#2C3282"/>
<path d="M349.441 200.532C349.333 200.532 349.223 200.52 349.112 200.497C347.778 200.213 347.131 198.811 347.077 196.085C347.029 193.749 347.416 190.751 347.825 187.576C347.99 186.293 348.16 184.967 348.301 183.683C348.313 183.574 348.411 183.494 348.522 183.506C348.632 183.518 348.711 183.617 348.699 183.727C348.558 185.014 348.387 186.342 348.221 187.627C347.43 193.769 346.683 199.571 349.195 200.106C349.273 200.122 349.351 200.131 349.429 200.131C350.872 200.131 352.171 197.318 352.929 194.578C352.958 194.472 353.068 194.41 353.174 194.439C353.281 194.469 353.344 194.578 353.314 194.685C352.814 196.493 351.469 200.531 349.441 200.532Z" fill="#2C3282"/>
<path d="M348.907 202.121C348.453 202.121 348.056 201.944 347.726 201.596C345.004 198.718 347.695 184.281 347.811 183.668C347.832 183.559 347.937 183.488 348.045 183.508C348.153 183.528 348.225 183.633 348.204 183.742C348.176 183.89 345.434 198.59 348.016 201.321C348.317 201.638 348.672 201.765 349.103 201.708C350.517 201.521 351.333 199.603 352.053 197.911C352.751 196.27 353.407 194.719 354.578 194.76C354.688 194.764 354.774 194.857 354.77 194.967C354.767 195.077 354.674 195.166 354.564 195.159C354.554 195.159 354.544 195.159 354.535 195.159C353.658 195.159 353.057 196.572 352.42 198.068C351.659 199.858 350.795 201.887 349.156 202.104C349.071 202.115 348.988 202.121 348.907 202.121Z" fill="#2C3282"/>
<path d="M348.304 185.018C347.742 185.743 346.86 186.001 346.335 185.594C345.81 185.186 345.84 184.268 346.403 183.543C346.966 182.817 347.847 182.56 348.372 182.967C348.897 183.374 348.867 184.293 348.304 185.018Z" fill="#FAB17E"/>
</g>
</g>
<defs>
<filter id="filter0_d_77_803" x="27.8105" y="23.7046" width="558.918" height="445.721" filterUnits="userSpaceOnUse" color-interpolation-filters="sRGB">
<feFlood flood-opacity="0" result="BackgroundImageFix"/>
<feColorMatrix in="SourceAlpha" type="matrix" values="0 0 0 0 0 0 0 0 0 0 0 0 0 0 0 0 0 0 127 0" result="hardAlpha"/>
<feOffset dy="4"/>
<feGaussianBlur stdDeviation="2"/>
<feComposite in2="hardAlpha" operator="out"/>
<feColorMatrix type="matrix" values="0 0 0 0 0 0 0 0 0 0 0 0 0 0 0 0 0 0 0.25 0"/>
<feBlend mode="normal" in2="BackgroundImageFix" result="effect1_dropShadow_77_803"/>
<feBlend mode="normal" in="SourceGraphic" in2="effect1_dropShadow_77_803" result="shape"/>
</filter>
<linearGradient id="paint0_linear_77_803" x1="31.8108" y1="351.536" x2="582.729" y2="351.536" gradientUnits="userSpaceOnUse">
<stop stop-color="#DBE2F3"/>
<stop offset="1" stop-color="#EAEFF8"/>
</linearGradient>
<linearGradient id="paint1_linear_77_803" x1="156.131" y1="179.804" x2="408.408" y2="179.804" gradientUnits="userSpaceOnUse">
<stop stop-color="#6472B5"/>
<stop offset="0.00354599" stop-color="#6472B5"/>
<stop offset="1" stop-color="#5C6EB2"/>
</linearGradient>
<linearGradient id="paint2_linear_77_803" x1="-nan" y1="-nan" x2="-nan" y2="-nan" gradientUnits="userSpaceOnUse">
<stop stop-color="#6472B5"/>
<stop offset="0.00354599" stop-color="#6472B5"/>
<stop offset="1" stop-color="#5C6EB2"/>
</linearGradient>
<linearGradient id="paint3_linear_77_803" x1="-nan" y1="-nan" x2="-nan" y2="-nan" gradientUnits="userSpaceOnUse">
<stop stop-color="#6472B5"/>
<stop offset="0.00354599" stop-color="#6472B5"/>
<stop offset="1" stop-color="#5C6EB2"/>
</linearGradient>
<linearGradient id="paint4_linear_77_803" x1="-nan" y1="-nan" x2="-nan" y2="-nan" gradientUnits="userSpaceOnUse">
<stop stop-color="#6472B5"/>
<stop offset="0.00354599" stop-color="#6472B5"/>
<stop offset="1" stop-color="#5C6EB2"/>
</linearGradient>
<linearGradient id="paint5_linear_77_803" x1="-nan" y1="-nan" x2="-nan" y2="-nan" gradientUnits="userSpaceOnUse">
<stop stop-color="#6B7BBB"/>
<stop offset="0.00354577" stop-color="#6B7BBB"/>
<stop offset="1" stop-color="#5C6EB2"/>
</linearGradient>
<linearGradient id="paint6_linear_77_803" x1="-nan" y1="-nan" x2="-nan" y2="-nan" gradientUnits="userSpaceOnUse">
<stop stop-color="#6B7BBB"/>
<stop offset="0.00354577" stop-color="#6B7BBB"/>
<stop offset="1" stop-color="#5C6EB2"/>
</linearGradient>
<linearGradient id="paint7_linear_77_803" x1="-nan" y1="-nan" x2="-nan" y2="-nan" gradientUnits="userSpaceOnUse">
<stop stop-color="#6B7BBB"/>
<stop offset="0.00354577" stop-color="#6B7BBB"/>
<stop offset="1" stop-color="#5C6EB2"/>
</linearGradient>
<linearGradient id="paint8_linear_77_803" x1="-nan" y1="-nan" x2="-nan" y2="-nan" gradientUnits="userSpaceOnUse">
<stop stop-color="#6B7BBB"/>
<stop offset="0.00354577" stop-color="#6B7BBB"/>
<stop offset="1" stop-color="#5C6EB2"/>
</linearGradient>
<linearGradient id="paint9_linear_77_803" x1="-nan" y1="-nan" x2="-nan" y2="-nan" gradientUnits="userSpaceOnUse">
<stop stop-color="#6472B5"/>
<stop offset="0.00354599" stop-color="#6472B5"/>
<stop offset="1" stop-color="#5C6EB2"/>
</linearGradient>
<linearGradient id="paint10_linear_77_803" x1="-nan" y1="-nan" x2="-nan" y2="-nan" gradientUnits="userSpaceOnUse">
<stop stop-color="#6B7BBB"/>
<stop offset="0.00354577" stop-color="#6B7BBB"/>
<stop offset="1" stop-color="#5C6EB2"/>
</linearGradient>
</defs>
</svg>
